<mxfile host="Electron" modified="2023-08-29T07:39:30.689Z" agent="Mozilla/5.0 (X11; Linux x86_64) AppleWebKit/537.36 (KHTML, like Gecko) draw.io/21.6.8 Chrome/114.0.5735.289 Electron/25.5.0 Safari/537.36" etag="xlRTr3RfzvFBi7cxsVzH" version="21.6.8" type="device" pages="2">
  <diagram name="simple-threat-modeling" id="lW88LHYSQc2RyAv99ytW">
    <mxGraphModel dx="1730" dy="1054" grid="1" gridSize="10" guides="1" tooltips="1" connect="1" arrows="1" fold="1" page="1" pageScale="1" pageWidth="827" pageHeight="1169" math="0" shadow="0">
      <root>
        <mxCell id="0" />
        <mxCell id="1" parent="0" />
        <mxCell id="RT4gFfPiR1vRvyQOU77k-19" value="" style="group" vertex="1" connectable="0" parent="1">
          <mxGeometry x="40" y="40" width="1140" height="546.01" as="geometry" />
        </mxCell>
        <mxCell id="5tXYEY_1x83hxL8RSo2W-6" value="" style="ellipse;shape=cloud;whiteSpace=wrap;html=1;align=center;strokeColor=#D4E1F5;strokeWidth=2;fillColor=#F5F5F5;fillStyle=hachure;sketch=1;curveFitting=1;jiggle=2;" parent="RT4gFfPiR1vRvyQOU77k-19" vertex="1">
          <mxGeometry x="323.92070484581495" width="816.079295154185" height="546.01" as="geometry" />
        </mxCell>
        <mxCell id="WdER79h_5s54ptWynd8--1" value="&lt;b&gt;User&lt;/b&gt;" style="sketch=0;outlineConnect=0;fontColor=#232F3E;gradientColor=none;fillColor=#587699;strokeColor=none;dashed=0;verticalLabelPosition=bottom;verticalAlign=top;align=center;html=1;fontSize=12;fontStyle=0;aspect=fixed;pointerEvents=1;shape=mxgraph.aws4.user;" parent="RT4gFfPiR1vRvyQOU77k-19" vertex="1">
          <mxGeometry y="256.96691970638057" width="70.38888423404552" height="70.38888423404552" as="geometry" />
        </mxCell>
        <mxCell id="WdER79h_5s54ptWynd8--3" value="&lt;font color=&quot;#000000&quot;&gt;Mobile App&lt;/font&gt;" style="fontColor=#0066CC;verticalAlign=top;verticalLabelPosition=bottom;labelPosition=center;align=center;html=1;outlineConnect=0;fillColor=#587699;strokeColor=#587699;gradientColor=none;gradientDirection=north;strokeWidth=2;shape=mxgraph.networks.mobile;" parent="RT4gFfPiR1vRvyQOU77k-19" vertex="1">
          <mxGeometry x="281.2334801762114" y="107.7467954827781" width="50.220264317180614" height="98.65793337097685" as="geometry" />
        </mxCell>
        <mxCell id="WdER79h_5s54ptWynd8--11" style="edgeStyle=orthogonalEdgeStyle;rounded=0;orthogonalLoop=1;jettySize=auto;html=1;entryX=0;entryY=0.5;entryDx=0;entryDy=0;entryPerimeter=0;curved=1;exitX=1.053;exitY=0.722;exitDx=0;exitDy=0;exitPerimeter=0;strokeColor=#5283BC;" parent="RT4gFfPiR1vRvyQOU77k-19" source="WdER79h_5s54ptWynd8--1" target="WdER79h_5s54ptWynd8--3" edge="1">
          <mxGeometry relative="1" as="geometry" />
        </mxCell>
        <mxCell id="WdER79h_5s54ptWynd8--9" value="Browser" style="sketch=0;pointerEvents=1;shadow=0;dashed=0;html=1;strokeColor=none;fillColor=#587699;aspect=fixed;labelPosition=center;verticalLabelPosition=bottom;verticalAlign=top;align=center;outlineConnect=0;shape=mxgraph.vvd.web_browser;" parent="RT4gFfPiR1vRvyQOU77k-19" vertex="1">
          <mxGeometry x="248.27643171806164" y="355.62485307735744" width="110.74113252339059" height="79.49089512637899" as="geometry" />
        </mxCell>
        <mxCell id="WdER79h_5s54ptWynd8--12" style="edgeStyle=orthogonalEdgeStyle;rounded=0;orthogonalLoop=1;jettySize=auto;html=1;curved=1;strokeColor=#5283BC;" parent="RT4gFfPiR1vRvyQOU77k-19" source="WdER79h_5s54ptWynd8--1" target="WdER79h_5s54ptWynd8--9" edge="1">
          <mxGeometry relative="1" as="geometry">
            <mxPoint x="244.52984933920703" y="407.9968003952569" as="targetPoint" />
            <mxPoint x="66.22112535042062" y="293.9636447204968" as="sourcePoint" />
            <Array as="points">
              <mxPoint x="200.88105726872246" y="306.29588639186903" />
              <mxPoint x="200.88105726872246" y="408.6534922642575" />
            </Array>
          </mxGeometry>
        </mxCell>
        <mxCell id="WdER79h_5s54ptWynd8--14" value="E-commerce &lt;br&gt;API" style="sketch=0;points=[[0,0,0],[0.25,0,0],[0.5,0,0],[0.75,0,0],[1,0,0],[0,1,0],[0.25,1,0],[0.5,1,0],[0.75,1,0],[1,1,0],[0,0.25,0],[0,0.5,0],[0,0.75,0],[1,0.25,0],[1,0.5,0],[1,0.75,0]];outlineConnect=0;fontColor=#232F3E;gradientColor=#4ABDC1;gradientDirection=north;fillColor=#4ABDC1;strokeColor=#ffffff;dashed=0;verticalLabelPosition=bottom;verticalAlign=top;align=center;html=1;fontSize=12;fontStyle=0;aspect=fixed;shape=mxgraph.aws4.resourceIcon;resIcon=mxgraph.aws4.ec2;" parent="RT4gFfPiR1vRvyQOU77k-19" vertex="1">
          <mxGeometry x="651.6079295154185" y="110.21324381705253" width="94.6609132802681" height="94.6609132802681" as="geometry" />
        </mxCell>
        <mxCell id="WdER79h_5s54ptWynd8--16" style="edgeStyle=orthogonalEdgeStyle;rounded=0;orthogonalLoop=1;jettySize=auto;html=1;curved=1;strokeColor=#5283BC;" parent="RT4gFfPiR1vRvyQOU77k-19" source="WdER79h_5s54ptWynd8--3" target="WdER79h_5s54ptWynd8--14" edge="1">
          <mxGeometry relative="1" as="geometry" />
        </mxCell>
        <mxCell id="WdER79h_5s54ptWynd8--24" value="&lt;font color=&quot;#5283bc&quot;&gt;&lt;b&gt;HTTP&lt;/b&gt;&lt;/font&gt;" style="edgeLabel;html=1;align=center;verticalAlign=middle;resizable=0;points=[];" parent="WdER79h_5s54ptWynd8--16" vertex="1" connectable="0">
          <mxGeometry x="-0.1091" y="9" relative="1" as="geometry">
            <mxPoint as="offset" />
          </mxGeometry>
        </mxCell>
        <mxCell id="WdER79h_5s54ptWynd8--15" value="&lt;font color=&quot;#384b61&quot;&gt;Spring Boot&lt;/font&gt;" style="dashed=0;html=1;fillColor=#FFF2CC;strokeColor=none;align=center;rounded=1;arcSize=10;fontColor=#3384FF;fontStyle=1;fontSize=11;shadow=0;fillStyle=auto;" parent="RT4gFfPiR1vRvyQOU77k-19" vertex="1">
          <mxGeometry x="726.9383259911893" y="96.6477779785432" width="112.99559471365639" height="24.664483342744212" as="geometry" />
        </mxCell>
        <mxCell id="WdER79h_5s54ptWynd8--21" style="edgeStyle=orthogonalEdgeStyle;rounded=0;orthogonalLoop=1;jettySize=auto;html=1;entryX=0;entryY=0.5;entryDx=0;entryDy=0;entryPerimeter=0;curved=1;exitX=1;exitY=0.5;exitDx=0;exitDy=0;exitPerimeter=0;strokeColor=#5283BC;startArrow=classic;startFill=1;" parent="RT4gFfPiR1vRvyQOU77k-19" source="WdER79h_5s54ptWynd8--14" target="5tXYEY_1x83hxL8RSo2W-4" edge="1">
          <mxGeometry relative="1" as="geometry">
            <mxPoint x="875.9537273127754" y="396.3538077108978" as="targetPoint" />
          </mxGeometry>
        </mxCell>
        <mxCell id="5tXYEY_1x83hxL8RSo2W-5" style="edgeStyle=orthogonalEdgeStyle;rounded=0;orthogonalLoop=1;jettySize=auto;html=1;strokeColor=#5283BC;startArrow=classic;startFill=1;" parent="RT4gFfPiR1vRvyQOU77k-19" source="WdER79h_5s54ptWynd8--17" target="WdER79h_5s54ptWynd8--14" edge="1">
          <mxGeometry relative="1" as="geometry" />
        </mxCell>
        <mxCell id="WdER79h_5s54ptWynd8--17" value="E-commerce &lt;br&gt;Website" style="sketch=0;points=[[0,0,0],[0.25,0,0],[0.5,0,0],[0.75,0,0],[1,0,0],[0,1,0],[0.25,1,0],[0.5,1,0],[0.75,1,0],[1,1,0],[0,0.25,0],[0,0.5,0],[0,0.75,0],[1,0.25,0],[1,0.5,0],[1,0.75,0]];outlineConnect=0;fontColor=#232F3E;gradientColor=#4ABDC1;gradientDirection=north;fillColor=#4abdc1;strokeColor=#ffffff;dashed=0;verticalLabelPosition=bottom;verticalAlign=top;align=center;html=1;fontSize=12;fontStyle=0;aspect=fixed;shape=mxgraph.aws4.resourceIcon;resIcon=mxgraph.aws4.ec2;" parent="RT4gFfPiR1vRvyQOU77k-19" vertex="1">
          <mxGeometry x="651.6079295154185" y="347.91720203274986" width="94.6609132802681" height="94.6609132802681" as="geometry" />
        </mxCell>
        <mxCell id="WdER79h_5s54ptWynd8--25" style="edgeStyle=orthogonalEdgeStyle;rounded=0;orthogonalLoop=1;jettySize=auto;html=1;curved=1;strokeColor=#5283BC;" parent="RT4gFfPiR1vRvyQOU77k-19" source="WdER79h_5s54ptWynd8--9" target="WdER79h_5s54ptWynd8--17" edge="1">
          <mxGeometry relative="1" as="geometry" />
        </mxCell>
        <mxCell id="WdER79h_5s54ptWynd8--26" value="&lt;font color=&quot;#5283bc&quot;&gt;&lt;b&gt;HTTPS&lt;/b&gt;&lt;/font&gt;" style="edgeLabel;html=1;align=center;verticalAlign=middle;resizable=0;points=[];" parent="WdER79h_5s54ptWynd8--25" vertex="1" connectable="0">
          <mxGeometry x="0.0494" y="1" relative="1" as="geometry">
            <mxPoint as="offset" />
          </mxGeometry>
        </mxCell>
        <mxCell id="WdER79h_5s54ptWynd8--18" value="&lt;font color=&quot;#384b61&quot;&gt;React&lt;/font&gt;" style="dashed=0;html=1;fillColor=#FFF2CC;strokeColor=none;align=center;rounded=1;arcSize=10;fontColor=#3384FF;fontStyle=1;fontSize=11;shadow=0;fillStyle=auto;" parent="RT4gFfPiR1vRvyQOU77k-19" vertex="1">
          <mxGeometry x="739.4933920704846" y="340.2095509881423" width="112.99559471365639" height="24.664483342744212" as="geometry" />
        </mxCell>
        <mxCell id="5tXYEY_1x83hxL8RSo2W-4" value="MySQL" style="sketch=0;points=[[0,0,0],[0.25,0,0],[0.5,0,0],[0.75,0,0],[1,0,0],[0,1,0],[0.25,1,0],[0.5,1,0],[0.75,1,0],[1,1,0],[0,0.25,0],[0,0.5,0],[0,0.75,0],[1,0.25,0],[1,0.5,0],[1,0.75,0]];outlineConnect=0;fontColor=#232F3E;gradientColor=#4abdc1;gradientDirection=north;fillColor=#4abdc1;strokeColor=#ffffff;dashed=0;verticalLabelPosition=bottom;verticalAlign=top;align=center;html=1;fontSize=12;fontStyle=0;aspect=fixed;shape=mxgraph.aws4.resourceIcon;resIcon=mxgraph.aws4.rds;" parent="RT4gFfPiR1vRvyQOU77k-19" vertex="1">
          <mxGeometry x="877.5991189427314" y="206.40472885375493" width="94.6609132802681" height="94.6609132802681" as="geometry" />
        </mxCell>
        <mxCell id="RT4gFfPiR1vRvyQOU77k-5" value="&lt;font color=&quot;#384b61&quot;&gt;React Native&lt;/font&gt;" style="dashed=0;html=1;fillColor=#FFF2CC;strokeColor=none;align=center;rounded=1;arcSize=10;fontColor=#3384FF;fontStyle=1;fontSize=11;shadow=0;fillStyle=auto;" vertex="1" parent="RT4gFfPiR1vRvyQOU77k-19">
          <mxGeometry x="303.83259911894277" y="96.6477779785432" width="125.55066079295155" height="24.664483342744212" as="geometry" />
        </mxCell>
        <mxCell id="RT4gFfPiR1vRvyQOU77k-15" value="" style="shadow=0;dashed=0;html=1;strokeColor=none;fillColor=#4495D1;labelPosition=center;verticalLabelPosition=bottom;verticalAlign=top;align=center;outlineConnect=0;shape=mxgraph.veeam.2d.alert;" vertex="1" parent="RT4gFfPiR1vRvyQOU77k-19">
          <mxGeometry x="375.1453744493392" y="137.837465160926" width="41.68281938325991" height="40.943042348955395" as="geometry" />
        </mxCell>
        <mxCell id="EXUOJWtWbif2DCc4qpPa-1" value="&lt;b style=&quot;font-weight:normal;&quot; id=&quot;docs-internal-guid-ee47c32d-7fff-3b02-9285-0a3521859588&quot;&gt;&lt;p dir=&quot;ltr&quot; style=&quot;line-height:1.2;margin-top:0pt;margin-bottom:0pt;&quot;&gt;&lt;/p&gt;&lt;/b&gt;&lt;font face=&quot;Nunito, sans-serif&quot; color=&quot;#173953&quot;&gt;&lt;span style=&quot;font-size: 24px;&quot;&gt;&lt;b&gt;Exemplo usado na modelagem de ameaça&lt;/b&gt;&lt;/span&gt;&lt;/font&gt;" style="text;whiteSpace=wrap;html=1;" vertex="1" parent="RT4gFfPiR1vRvyQOU77k-19">
          <mxGeometry width="490" height="40" as="geometry" />
        </mxCell>
      </root>
    </mxGraphModel>
  </diagram>
  <diagram id="f6v3n4ac9hhpYFtbnePd" name="aws-enviroment-patterns">
    <mxGraphModel dx="1977" dy="1204" grid="1" gridSize="10" guides="1" tooltips="1" connect="1" arrows="1" fold="1" page="1" pageScale="1" pageWidth="827" pageHeight="1169" math="0" shadow="0">
      <root>
        <mxCell id="0" />
        <mxCell id="1" parent="0" />
        <mxCell id="xT3cx_YLARcE6HXCoQC6-122" value="" style="group" vertex="1" connectable="0" parent="1">
          <mxGeometry x="40" y="113" width="1168" height="385" as="geometry" />
        </mxCell>
        <mxCell id="xT3cx_YLARcE6HXCoQC6-1" value="AWS Cloud" style="points=[[0,0],[0.25,0],[0.5,0],[0.75,0],[1,0],[1,0.25],[1,0.5],[1,0.75],[1,1],[0.75,1],[0.5,1],[0.25,1],[0,1],[0,0.75],[0,0.5],[0,0.25]];outlineConnect=0;gradientColor=none;html=1;whiteSpace=wrap;fontSize=12;fontStyle=0;container=1;pointerEvents=0;collapsible=0;recursiveResize=0;shape=mxgraph.aws4.group;grIcon=mxgraph.aws4.group_aws_cloud_alt;strokeColor=#232F3E;fillColor=none;verticalAlign=top;align=left;spacingLeft=30;fontColor=#232F3E;dashed=0;" vertex="1" parent="xT3cx_YLARcE6HXCoQC6-122">
          <mxGeometry width="950" height="290" as="geometry" />
        </mxCell>
        <mxCell id="xT3cx_YLARcE6HXCoQC6-2" value="Production Account" style="points=[[0,0],[0.25,0],[0.5,0],[0.75,0],[1,0],[1,0.25],[1,0.5],[1,0.75],[1,1],[0.75,1],[0.5,1],[0.25,1],[0,1],[0,0.75],[0,0.5],[0,0.25]];outlineConnect=0;gradientColor=none;html=1;whiteSpace=wrap;fontSize=12;fontStyle=0;container=1;pointerEvents=0;collapsible=0;recursiveResize=0;shape=mxgraph.aws4.group;grIcon=mxgraph.aws4.group_account;strokeColor=#CD2264;fillColor=none;verticalAlign=top;align=left;spacingLeft=30;fontColor=#CD2264;dashed=0;" vertex="1" parent="xT3cx_YLARcE6HXCoQC6-1">
          <mxGeometry x="710" y="37" width="195" height="190" as="geometry" />
        </mxCell>
        <mxCell id="xT3cx_YLARcE6HXCoQC6-3" value="&lt;font style=&quot;&quot; color=&quot;#006633&quot;&gt;PROD&lt;/font&gt;" style="points=[[0,0],[0.25,0],[0.5,0],[0.75,0],[1,0],[1,0.25],[1,0.5],[1,0.75],[1,1],[0.75,1],[0.5,1],[0.25,1],[0,1],[0,0.75],[0,0.5],[0,0.25]];outlineConnect=0;gradientColor=none;html=1;whiteSpace=wrap;fontSize=12;fontStyle=0;container=1;pointerEvents=0;collapsible=0;recursiveResize=0;shape=mxgraph.aws4.group;grIcon=mxgraph.aws4.group_vpc;strokeColor=#248814;fillColor=none;verticalAlign=top;align=left;spacingLeft=30;fontColor=#AAB7B8;dashed=0;" vertex="1" parent="xT3cx_YLARcE6HXCoQC6-2">
          <mxGeometry x="32.5" y="40" width="130" height="130" as="geometry" />
        </mxCell>
        <mxCell id="xT3cx_YLARcE6HXCoQC6-4" value="" style="sketch=0;points=[[0,0,0],[0.25,0,0],[0.5,0,0],[0.75,0,0],[1,0,0],[0,1,0],[0.25,1,0],[0.5,1,0],[0.75,1,0],[1,1,0],[0,0.25,0],[0,0.5,0],[0,0.75,0],[1,0.25,0],[1,0.5,0],[1,0.75,0]];outlineConnect=0;fontColor=#232F3E;gradientColor=#F78E04;gradientDirection=north;fillColor=#D05C17;strokeColor=#ffffff;dashed=0;verticalLabelPosition=bottom;verticalAlign=top;align=center;html=1;fontSize=12;fontStyle=0;aspect=fixed;shape=mxgraph.aws4.resourceIcon;resIcon=mxgraph.aws4.ec2;" vertex="1" parent="xT3cx_YLARcE6HXCoQC6-3">
          <mxGeometry x="44" y="40" width="42" height="42" as="geometry" />
        </mxCell>
        <mxCell id="xT3cx_YLARcE6HXCoQC6-5" value="" style="sketch=0;points=[[0,0,0],[0.25,0,0],[0.5,0,0],[0.75,0,0],[1,0,0],[0,1,0],[0.25,1,0],[0.5,1,0],[0.75,1,0],[1,1,0],[0,0.25,0],[0,0.5,0],[0,0.75,0],[1,0.25,0],[1,0.5,0],[1,0.75,0]];outlineConnect=0;fontColor=#232F3E;gradientColor=#F78E04;gradientDirection=north;fillColor=#D05C17;strokeColor=#ffffff;dashed=0;verticalLabelPosition=bottom;verticalAlign=top;align=center;html=1;fontSize=12;fontStyle=0;aspect=fixed;shape=mxgraph.aws4.resourceIcon;resIcon=mxgraph.aws4.ec2;" vertex="1" parent="xT3cx_YLARcE6HXCoQC6-3">
          <mxGeometry x="80" y="68" width="42" height="42" as="geometry" />
        </mxCell>
        <mxCell id="xT3cx_YLARcE6HXCoQC6-6" value="" style="sketch=0;points=[[0,0,0],[0.25,0,0],[0.5,0,0],[0.75,0,0],[1,0,0],[0,1,0],[0.25,1,0],[0.5,1,0],[0.75,1,0],[1,1,0],[0,0.25,0],[0,0.5,0],[0,0.75,0],[1,0.25,0],[1,0.5,0],[1,0.75,0]];outlineConnect=0;fontColor=#232F3E;gradientColor=#F78E04;gradientDirection=north;fillColor=#D05C17;strokeColor=#ffffff;dashed=0;verticalLabelPosition=bottom;verticalAlign=top;align=center;html=1;fontSize=12;fontStyle=0;aspect=fixed;shape=mxgraph.aws4.resourceIcon;resIcon=mxgraph.aws4.ec2;" vertex="1" parent="xT3cx_YLARcE6HXCoQC6-3">
          <mxGeometry x="10" y="68" width="42" height="42" as="geometry" />
        </mxCell>
        <mxCell id="xT3cx_YLARcE6HXCoQC6-73" value="Staging Account" style="points=[[0,0],[0.25,0],[0.5,0],[0.75,0],[1,0],[1,0.25],[1,0.5],[1,0.75],[1,1],[0.75,1],[0.5,1],[0.25,1],[0,1],[0,0.75],[0,0.5],[0,0.25]];outlineConnect=0;gradientColor=none;html=1;whiteSpace=wrap;fontSize=12;fontStyle=0;container=1;pointerEvents=0;collapsible=0;recursiveResize=0;shape=mxgraph.aws4.group;grIcon=mxgraph.aws4.group_account;strokeColor=#CD2264;fillColor=none;verticalAlign=top;align=left;spacingLeft=30;fontColor=#CD2264;dashed=0;" vertex="1" parent="xT3cx_YLARcE6HXCoQC6-1">
          <mxGeometry x="487" y="40" width="195" height="190" as="geometry" />
        </mxCell>
        <mxCell id="xT3cx_YLARcE6HXCoQC6-74" value="&lt;font style=&quot;&quot; color=&quot;#006633&quot;&gt;STAGE&lt;/font&gt;" style="points=[[0,0],[0.25,0],[0.5,0],[0.75,0],[1,0],[1,0.25],[1,0.5],[1,0.75],[1,1],[0.75,1],[0.5,1],[0.25,1],[0,1],[0,0.75],[0,0.5],[0,0.25]];outlineConnect=0;gradientColor=none;html=1;whiteSpace=wrap;fontSize=12;fontStyle=0;container=1;pointerEvents=0;collapsible=0;recursiveResize=0;shape=mxgraph.aws4.group;grIcon=mxgraph.aws4.group_vpc;strokeColor=#248814;fillColor=none;verticalAlign=top;align=left;spacingLeft=30;fontColor=#AAB7B8;dashed=0;" vertex="1" parent="xT3cx_YLARcE6HXCoQC6-73">
          <mxGeometry x="32.5" y="40" width="130" height="130" as="geometry" />
        </mxCell>
        <mxCell id="xT3cx_YLARcE6HXCoQC6-75" value="" style="sketch=0;points=[[0,0,0],[0.25,0,0],[0.5,0,0],[0.75,0,0],[1,0,0],[0,1,0],[0.25,1,0],[0.5,1,0],[0.75,1,0],[1,1,0],[0,0.25,0],[0,0.5,0],[0,0.75,0],[1,0.25,0],[1,0.5,0],[1,0.75,0]];outlineConnect=0;fontColor=#232F3E;gradientColor=#F78E04;gradientDirection=north;fillColor=#D05C17;strokeColor=#ffffff;dashed=0;verticalLabelPosition=bottom;verticalAlign=top;align=center;html=1;fontSize=12;fontStyle=0;aspect=fixed;shape=mxgraph.aws4.resourceIcon;resIcon=mxgraph.aws4.ec2;" vertex="1" parent="xT3cx_YLARcE6HXCoQC6-74">
          <mxGeometry x="44" y="40" width="42" height="42" as="geometry" />
        </mxCell>
        <mxCell id="xT3cx_YLARcE6HXCoQC6-76" value="" style="sketch=0;points=[[0,0,0],[0.25,0,0],[0.5,0,0],[0.75,0,0],[1,0,0],[0,1,0],[0.25,1,0],[0.5,1,0],[0.75,1,0],[1,1,0],[0,0.25,0],[0,0.5,0],[0,0.75,0],[1,0.25,0],[1,0.5,0],[1,0.75,0]];outlineConnect=0;fontColor=#232F3E;gradientColor=#F78E04;gradientDirection=north;fillColor=#D05C17;strokeColor=#ffffff;dashed=0;verticalLabelPosition=bottom;verticalAlign=top;align=center;html=1;fontSize=12;fontStyle=0;aspect=fixed;shape=mxgraph.aws4.resourceIcon;resIcon=mxgraph.aws4.ec2;" vertex="1" parent="xT3cx_YLARcE6HXCoQC6-74">
          <mxGeometry x="80" y="68" width="42" height="42" as="geometry" />
        </mxCell>
        <mxCell id="xT3cx_YLARcE6HXCoQC6-77" value="" style="sketch=0;points=[[0,0,0],[0.25,0,0],[0.5,0,0],[0.75,0,0],[1,0,0],[0,1,0],[0.25,1,0],[0.5,1,0],[0.75,1,0],[1,1,0],[0,0.25,0],[0,0.5,0],[0,0.75,0],[1,0.25,0],[1,0.5,0],[1,0.75,0]];outlineConnect=0;fontColor=#232F3E;gradientColor=#F78E04;gradientDirection=north;fillColor=#D05C17;strokeColor=#ffffff;dashed=0;verticalLabelPosition=bottom;verticalAlign=top;align=center;html=1;fontSize=12;fontStyle=0;aspect=fixed;shape=mxgraph.aws4.resourceIcon;resIcon=mxgraph.aws4.ec2;" vertex="1" parent="xT3cx_YLARcE6HXCoQC6-74">
          <mxGeometry x="10" y="68" width="42" height="42" as="geometry" />
        </mxCell>
        <mxCell id="xT3cx_YLARcE6HXCoQC6-78" value="Testing Account" style="points=[[0,0],[0.25,0],[0.5,0],[0.75,0],[1,0],[1,0.25],[1,0.5],[1,0.75],[1,1],[0.75,1],[0.5,1],[0.25,1],[0,1],[0,0.75],[0,0.5],[0,0.25]];outlineConnect=0;gradientColor=none;html=1;whiteSpace=wrap;fontSize=12;fontStyle=0;container=1;pointerEvents=0;collapsible=0;recursiveResize=0;shape=mxgraph.aws4.group;grIcon=mxgraph.aws4.group_account;strokeColor=#CD2264;fillColor=none;verticalAlign=top;align=left;spacingLeft=30;fontColor=#CD2264;dashed=0;" vertex="1" parent="xT3cx_YLARcE6HXCoQC6-1">
          <mxGeometry x="263" y="40" width="195" height="190" as="geometry" />
        </mxCell>
        <mxCell id="xT3cx_YLARcE6HXCoQC6-79" value="&lt;font style=&quot;&quot; color=&quot;#006633&quot;&gt;TEST&lt;/font&gt;" style="points=[[0,0],[0.25,0],[0.5,0],[0.75,0],[1,0],[1,0.25],[1,0.5],[1,0.75],[1,1],[0.75,1],[0.5,1],[0.25,1],[0,1],[0,0.75],[0,0.5],[0,0.25]];outlineConnect=0;gradientColor=none;html=1;whiteSpace=wrap;fontSize=12;fontStyle=0;container=1;pointerEvents=0;collapsible=0;recursiveResize=0;shape=mxgraph.aws4.group;grIcon=mxgraph.aws4.group_vpc;strokeColor=#248814;fillColor=none;verticalAlign=top;align=left;spacingLeft=30;fontColor=#AAB7B8;dashed=0;" vertex="1" parent="xT3cx_YLARcE6HXCoQC6-78">
          <mxGeometry x="32.5" y="40" width="130" height="130" as="geometry" />
        </mxCell>
        <mxCell id="xT3cx_YLARcE6HXCoQC6-80" value="" style="sketch=0;points=[[0,0,0],[0.25,0,0],[0.5,0,0],[0.75,0,0],[1,0,0],[0,1,0],[0.25,1,0],[0.5,1,0],[0.75,1,0],[1,1,0],[0,0.25,0],[0,0.5,0],[0,0.75,0],[1,0.25,0],[1,0.5,0],[1,0.75,0]];outlineConnect=0;fontColor=#232F3E;gradientColor=#F78E04;gradientDirection=north;fillColor=#D05C17;strokeColor=#ffffff;dashed=0;verticalLabelPosition=bottom;verticalAlign=top;align=center;html=1;fontSize=12;fontStyle=0;aspect=fixed;shape=mxgraph.aws4.resourceIcon;resIcon=mxgraph.aws4.ec2;" vertex="1" parent="xT3cx_YLARcE6HXCoQC6-79">
          <mxGeometry x="44" y="40" width="42" height="42" as="geometry" />
        </mxCell>
        <mxCell id="xT3cx_YLARcE6HXCoQC6-81" value="" style="sketch=0;points=[[0,0,0],[0.25,0,0],[0.5,0,0],[0.75,0,0],[1,0,0],[0,1,0],[0.25,1,0],[0.5,1,0],[0.75,1,0],[1,1,0],[0,0.25,0],[0,0.5,0],[0,0.75,0],[1,0.25,0],[1,0.5,0],[1,0.75,0]];outlineConnect=0;fontColor=#232F3E;gradientColor=#F78E04;gradientDirection=north;fillColor=#D05C17;strokeColor=#ffffff;dashed=0;verticalLabelPosition=bottom;verticalAlign=top;align=center;html=1;fontSize=12;fontStyle=0;aspect=fixed;shape=mxgraph.aws4.resourceIcon;resIcon=mxgraph.aws4.ec2;" vertex="1" parent="xT3cx_YLARcE6HXCoQC6-79">
          <mxGeometry x="80" y="68" width="42" height="42" as="geometry" />
        </mxCell>
        <mxCell id="xT3cx_YLARcE6HXCoQC6-82" value="" style="sketch=0;points=[[0,0,0],[0.25,0,0],[0.5,0,0],[0.75,0,0],[1,0,0],[0,1,0],[0.25,1,0],[0.5,1,0],[0.75,1,0],[1,1,0],[0,0.25,0],[0,0.5,0],[0,0.75,0],[1,0.25,0],[1,0.5,0],[1,0.75,0]];outlineConnect=0;fontColor=#232F3E;gradientColor=#F78E04;gradientDirection=north;fillColor=#D05C17;strokeColor=#ffffff;dashed=0;verticalLabelPosition=bottom;verticalAlign=top;align=center;html=1;fontSize=12;fontStyle=0;aspect=fixed;shape=mxgraph.aws4.resourceIcon;resIcon=mxgraph.aws4.ec2;" vertex="1" parent="xT3cx_YLARcE6HXCoQC6-79">
          <mxGeometry x="10" y="68" width="42" height="42" as="geometry" />
        </mxCell>
        <mxCell id="xT3cx_YLARcE6HXCoQC6-31" value="" style="group" vertex="1" connectable="0" parent="xT3cx_YLARcE6HXCoQC6-1">
          <mxGeometry x="885" y="112" width="40" height="40" as="geometry" />
        </mxCell>
        <mxCell id="xT3cx_YLARcE6HXCoQC6-30" value="" style="ellipse;whiteSpace=wrap;html=1;aspect=fixed;strokeColor=none;" vertex="1" parent="xT3cx_YLARcE6HXCoQC6-31">
          <mxGeometry width="40" height="40" as="geometry" />
        </mxCell>
        <mxCell id="xT3cx_YLARcE6HXCoQC6-27" value="" style="sketch=0;outlineConnect=0;fontColor=#232F3E;gradientColor=none;fillColor=#BF0816;strokeColor=none;dashed=0;verticalLabelPosition=bottom;verticalAlign=top;align=center;html=1;fontSize=12;fontStyle=0;aspect=fixed;pointerEvents=1;shape=mxgraph.aws4.network_firewall_endpoints;" vertex="1" parent="xT3cx_YLARcE6HXCoQC6-31">
          <mxGeometry x="1" y="1" width="38" height="38" as="geometry" />
        </mxCell>
        <mxCell id="xT3cx_YLARcE6HXCoQC6-83" value="Development Account" style="points=[[0,0],[0.25,0],[0.5,0],[0.75,0],[1,0],[1,0.25],[1,0.5],[1,0.75],[1,1],[0.75,1],[0.5,1],[0.25,1],[0,1],[0,0.75],[0,0.5],[0,0.25]];outlineConnect=0;gradientColor=none;html=1;whiteSpace=wrap;fontSize=12;fontStyle=0;container=1;pointerEvents=0;collapsible=0;recursiveResize=0;shape=mxgraph.aws4.group;grIcon=mxgraph.aws4.group_account;strokeColor=#CD2264;fillColor=none;verticalAlign=top;align=left;spacingLeft=30;fontColor=#CD2264;dashed=0;" vertex="1" parent="xT3cx_YLARcE6HXCoQC6-1">
          <mxGeometry x="40" y="40" width="195" height="190" as="geometry" />
        </mxCell>
        <mxCell id="xT3cx_YLARcE6HXCoQC6-84" value="&lt;font style=&quot;&quot; color=&quot;#006633&quot;&gt;DEV&lt;/font&gt;" style="points=[[0,0],[0.25,0],[0.5,0],[0.75,0],[1,0],[1,0.25],[1,0.5],[1,0.75],[1,1],[0.75,1],[0.5,1],[0.25,1],[0,1],[0,0.75],[0,0.5],[0,0.25]];outlineConnect=0;gradientColor=none;html=1;whiteSpace=wrap;fontSize=12;fontStyle=0;container=1;pointerEvents=0;collapsible=0;recursiveResize=0;shape=mxgraph.aws4.group;grIcon=mxgraph.aws4.group_vpc;strokeColor=#248814;fillColor=none;verticalAlign=top;align=left;spacingLeft=30;fontColor=#AAB7B8;dashed=0;" vertex="1" parent="xT3cx_YLARcE6HXCoQC6-83">
          <mxGeometry x="32.5" y="40" width="130" height="130" as="geometry" />
        </mxCell>
        <mxCell id="xT3cx_YLARcE6HXCoQC6-85" value="" style="sketch=0;points=[[0,0,0],[0.25,0,0],[0.5,0,0],[0.75,0,0],[1,0,0],[0,1,0],[0.25,1,0],[0.5,1,0],[0.75,1,0],[1,1,0],[0,0.25,0],[0,0.5,0],[0,0.75,0],[1,0.25,0],[1,0.5,0],[1,0.75,0]];outlineConnect=0;fontColor=#232F3E;gradientColor=#F78E04;gradientDirection=north;fillColor=#D05C17;strokeColor=#ffffff;dashed=0;verticalLabelPosition=bottom;verticalAlign=top;align=center;html=1;fontSize=12;fontStyle=0;aspect=fixed;shape=mxgraph.aws4.resourceIcon;resIcon=mxgraph.aws4.ec2;" vertex="1" parent="xT3cx_YLARcE6HXCoQC6-84">
          <mxGeometry x="44" y="40" width="42" height="42" as="geometry" />
        </mxCell>
        <mxCell id="xT3cx_YLARcE6HXCoQC6-86" value="" style="sketch=0;points=[[0,0,0],[0.25,0,0],[0.5,0,0],[0.75,0,0],[1,0,0],[0,1,0],[0.25,1,0],[0.5,1,0],[0.75,1,0],[1,1,0],[0,0.25,0],[0,0.5,0],[0,0.75,0],[1,0.25,0],[1,0.5,0],[1,0.75,0]];outlineConnect=0;fontColor=#232F3E;gradientColor=#F78E04;gradientDirection=north;fillColor=#D05C17;strokeColor=#ffffff;dashed=0;verticalLabelPosition=bottom;verticalAlign=top;align=center;html=1;fontSize=12;fontStyle=0;aspect=fixed;shape=mxgraph.aws4.resourceIcon;resIcon=mxgraph.aws4.ec2;" vertex="1" parent="xT3cx_YLARcE6HXCoQC6-84">
          <mxGeometry x="80" y="68" width="42" height="42" as="geometry" />
        </mxCell>
        <mxCell id="xT3cx_YLARcE6HXCoQC6-87" value="" style="sketch=0;points=[[0,0,0],[0.25,0,0],[0.5,0,0],[0.75,0,0],[1,0,0],[0,1,0],[0.25,1,0],[0.5,1,0],[0.75,1,0],[1,1,0],[0,0.25,0],[0,0.5,0],[0,0.75,0],[1,0.25,0],[1,0.5,0],[1,0.75,0]];outlineConnect=0;fontColor=#232F3E;gradientColor=#F78E04;gradientDirection=north;fillColor=#D05C17;strokeColor=#ffffff;dashed=0;verticalLabelPosition=bottom;verticalAlign=top;align=center;html=1;fontSize=12;fontStyle=0;aspect=fixed;shape=mxgraph.aws4.resourceIcon;resIcon=mxgraph.aws4.ec2;" vertex="1" parent="xT3cx_YLARcE6HXCoQC6-84">
          <mxGeometry x="10" y="68" width="42" height="42" as="geometry" />
        </mxCell>
        <mxCell id="xT3cx_YLARcE6HXCoQC6-98" value="" style="group" vertex="1" connectable="0" parent="xT3cx_YLARcE6HXCoQC6-1">
          <mxGeometry x="569" y="207" width="40" height="40" as="geometry" />
        </mxCell>
        <mxCell id="xT3cx_YLARcE6HXCoQC6-99" value="" style="ellipse;whiteSpace=wrap;html=1;aspect=fixed;strokeColor=none;" vertex="1" parent="xT3cx_YLARcE6HXCoQC6-98">
          <mxGeometry width="40" height="40" as="geometry" />
        </mxCell>
        <mxCell id="xT3cx_YLARcE6HXCoQC6-100" value="" style="sketch=0;outlineConnect=0;fontColor=#232F3E;gradientColor=none;fillColor=#BF0816;strokeColor=none;dashed=0;verticalLabelPosition=bottom;verticalAlign=top;align=center;html=1;fontSize=12;fontStyle=0;aspect=fixed;pointerEvents=1;shape=mxgraph.aws4.addon;" vertex="1" parent="xT3cx_YLARcE6HXCoQC6-98">
          <mxGeometry x="0.5" y="10" width="39" height="20" as="geometry" />
        </mxCell>
        <mxCell id="xT3cx_YLARcE6HXCoQC6-106" value="" style="group" vertex="1" connectable="0" parent="xT3cx_YLARcE6HXCoQC6-1">
          <mxGeometry x="119" y="207" width="40" height="40" as="geometry" />
        </mxCell>
        <mxCell id="xT3cx_YLARcE6HXCoQC6-107" value="" style="ellipse;whiteSpace=wrap;html=1;aspect=fixed;strokeColor=none;" vertex="1" parent="xT3cx_YLARcE6HXCoQC6-106">
          <mxGeometry width="40" height="40" as="geometry" />
        </mxCell>
        <mxCell id="xT3cx_YLARcE6HXCoQC6-108" value="" style="sketch=0;outlineConnect=0;fontColor=#232F3E;gradientColor=none;fillColor=#BF0816;strokeColor=none;dashed=0;verticalLabelPosition=bottom;verticalAlign=top;align=center;html=1;fontSize=12;fontStyle=0;aspect=fixed;pointerEvents=1;shape=mxgraph.aws4.addon;" vertex="1" parent="xT3cx_YLARcE6HXCoQC6-106">
          <mxGeometry x="0.5" y="10" width="39" height="20" as="geometry" />
        </mxCell>
        <mxCell id="xT3cx_YLARcE6HXCoQC6-112" value="" style="ellipse;whiteSpace=wrap;html=1;aspect=fixed;strokeColor=none;" vertex="1" parent="xT3cx_YLARcE6HXCoQC6-1">
          <mxGeometry x="796" y="207" width="40" height="40" as="geometry" />
        </mxCell>
        <mxCell id="xT3cx_YLARcE6HXCoQC6-113" value="" style="sketch=0;outlineConnect=0;fontColor=#232F3E;gradientColor=none;fillColor=#BF0816;strokeColor=none;dashed=0;verticalLabelPosition=bottom;verticalAlign=top;align=center;html=1;fontSize=12;fontStyle=0;aspect=fixed;pointerEvents=1;shape=mxgraph.aws4.temporary_security_credential;" vertex="1" parent="xT3cx_YLARcE6HXCoQC6-1">
          <mxGeometry x="796.5" y="217" width="39" height="20" as="geometry" />
        </mxCell>
        <mxCell id="xT3cx_YLARcE6HXCoQC6-40" value="" style="group" vertex="1" connectable="0" parent="xT3cx_YLARcE6HXCoQC6-1">
          <mxGeometry x="344" y="207" width="40" height="40" as="geometry" />
        </mxCell>
        <mxCell id="xT3cx_YLARcE6HXCoQC6-36" value="" style="ellipse;whiteSpace=wrap;html=1;aspect=fixed;strokeColor=none;" vertex="1" parent="xT3cx_YLARcE6HXCoQC6-40">
          <mxGeometry width="40" height="40" as="geometry" />
        </mxCell>
        <mxCell id="xT3cx_YLARcE6HXCoQC6-37" value="" style="sketch=0;outlineConnect=0;fontColor=#232F3E;gradientColor=none;fillColor=#BF0816;strokeColor=none;dashed=0;verticalLabelPosition=bottom;verticalAlign=top;align=center;html=1;fontSize=12;fontStyle=0;aspect=fixed;pointerEvents=1;shape=mxgraph.aws4.addon;" vertex="1" parent="xT3cx_YLARcE6HXCoQC6-40">
          <mxGeometry x="0.5" y="10" width="39" height="20" as="geometry" />
        </mxCell>
        <mxCell id="xT3cx_YLARcE6HXCoQC6-41" style="edgeStyle=orthogonalEdgeStyle;rounded=0;orthogonalLoop=1;jettySize=auto;html=1;strokeColor=#808080;endArrow=classic;endFill=1;" edge="1" parent="xT3cx_YLARcE6HXCoQC6-122" source="xT3cx_YLARcE6HXCoQC6-25" target="xT3cx_YLARcE6HXCoQC6-37">
          <mxGeometry relative="1" as="geometry" />
        </mxCell>
        <mxCell id="xT3cx_YLARcE6HXCoQC6-25" value="Testadores" style="outlineConnect=0;fontColor=#232F3E;gradientColor=none;fillColor=#232F3D;strokeColor=none;dashed=0;verticalLabelPosition=bottom;verticalAlign=top;align=center;html=1;fontSize=12;fontStyle=0;aspect=fixed;pointerEvents=1;shape=mxgraph.aws4.users;strokeWidth=1;shadow=0;" vertex="1" parent="xT3cx_YLARcE6HXCoQC6-122">
          <mxGeometry x="325" y="307" width="78" height="78" as="geometry" />
        </mxCell>
        <mxCell id="xT3cx_YLARcE6HXCoQC6-42" style="edgeStyle=orthogonalEdgeStyle;rounded=0;orthogonalLoop=1;jettySize=auto;html=1;strokeColor=#808080;" edge="1" parent="xT3cx_YLARcE6HXCoQC6-122" source="xT3cx_YLARcE6HXCoQC6-26" target="xT3cx_YLARcE6HXCoQC6-27">
          <mxGeometry relative="1" as="geometry" />
        </mxCell>
        <mxCell id="xT3cx_YLARcE6HXCoQC6-26" value="Clientes" style="outlineConnect=0;fontColor=#232F3E;gradientColor=none;fillColor=#232F3D;strokeColor=none;dashed=0;verticalLabelPosition=bottom;verticalAlign=top;align=center;html=1;fontSize=12;fontStyle=0;aspect=fixed;pointerEvents=1;shape=mxgraph.aws4.users;strokeWidth=1;shadow=0;" vertex="1" parent="xT3cx_YLARcE6HXCoQC6-122">
          <mxGeometry x="1090" y="93" width="78" height="78" as="geometry" />
        </mxCell>
        <mxCell id="xT3cx_YLARcE6HXCoQC6-101" style="edgeStyle=orthogonalEdgeStyle;rounded=0;orthogonalLoop=1;jettySize=auto;html=1;strokeColor=#808080;endArrow=classic;endFill=1;" edge="1" source="xT3cx_YLARcE6HXCoQC6-102" target="xT3cx_YLARcE6HXCoQC6-100" parent="xT3cx_YLARcE6HXCoQC6-122">
          <mxGeometry relative="1" as="geometry" />
        </mxCell>
        <mxCell id="xT3cx_YLARcE6HXCoQC6-102" value="Desenvolvedores/Testadores" style="outlineConnect=0;fontColor=#232F3E;gradientColor=none;fillColor=#232F3D;strokeColor=none;dashed=0;verticalLabelPosition=bottom;verticalAlign=top;align=center;html=1;fontSize=12;fontStyle=0;aspect=fixed;pointerEvents=1;shape=mxgraph.aws4.users;strokeWidth=1;shadow=0;" vertex="1" parent="xT3cx_YLARcE6HXCoQC6-122">
          <mxGeometry x="550" y="307" width="78" height="78" as="geometry" />
        </mxCell>
        <mxCell id="xT3cx_YLARcE6HXCoQC6-109" style="edgeStyle=orthogonalEdgeStyle;rounded=0;orthogonalLoop=1;jettySize=auto;html=1;strokeColor=#808080;endArrow=classic;endFill=1;" edge="1" source="xT3cx_YLARcE6HXCoQC6-110" target="xT3cx_YLARcE6HXCoQC6-108" parent="xT3cx_YLARcE6HXCoQC6-122">
          <mxGeometry relative="1" as="geometry" />
        </mxCell>
        <mxCell id="xT3cx_YLARcE6HXCoQC6-110" value="Desenvolvedores" style="outlineConnect=0;fontColor=#232F3E;gradientColor=none;fillColor=#232F3D;strokeColor=none;dashed=0;verticalLabelPosition=bottom;verticalAlign=top;align=center;html=1;fontSize=12;fontStyle=0;aspect=fixed;pointerEvents=1;shape=mxgraph.aws4.users;strokeWidth=1;shadow=0;" vertex="1" parent="xT3cx_YLARcE6HXCoQC6-122">
          <mxGeometry x="100" y="307" width="78" height="78" as="geometry" />
        </mxCell>
        <mxCell id="xT3cx_YLARcE6HXCoQC6-114" style="edgeStyle=orthogonalEdgeStyle;rounded=0;orthogonalLoop=1;jettySize=auto;html=1;strokeColor=#808080;endArrow=classic;endFill=1;" edge="1" source="xT3cx_YLARcE6HXCoQC6-115" target="xT3cx_YLARcE6HXCoQC6-113" parent="xT3cx_YLARcE6HXCoQC6-122">
          <mxGeometry relative="1" as="geometry" />
        </mxCell>
        <mxCell id="xT3cx_YLARcE6HXCoQC6-115" value="Usuários com acesso limitado" style="outlineConnect=0;fontColor=#232F3E;gradientColor=none;fillColor=#232F3D;strokeColor=none;dashed=0;verticalLabelPosition=bottom;verticalAlign=top;align=center;html=1;fontSize=12;fontStyle=0;aspect=fixed;pointerEvents=1;shape=mxgraph.aws4.users;strokeWidth=1;shadow=0;" vertex="1" parent="xT3cx_YLARcE6HXCoQC6-122">
          <mxGeometry x="777" y="307" width="78" height="78" as="geometry" />
        </mxCell>
        <mxCell id="LGWR-m-QxM4RFgHYod-S-31" value="" style="group" vertex="1" connectable="0" parent="1">
          <mxGeometry x="40" y="690" width="1076" height="798" as="geometry" />
        </mxCell>
        <mxCell id="LGWR-m-QxM4RFgHYod-S-32" value="AWS Cloud" style="points=[[0,0],[0.25,0],[0.5,0],[0.75,0],[1,0],[1,0.25],[1,0.5],[1,0.75],[1,1],[0.75,1],[0.5,1],[0.25,1],[0,1],[0,0.75],[0,0.5],[0,0.25]];outlineConnect=0;gradientColor=none;html=1;whiteSpace=wrap;fontSize=12;fontStyle=0;container=1;pointerEvents=0;collapsible=0;recursiveResize=0;shape=mxgraph.aws4.group;grIcon=mxgraph.aws4.group_aws_cloud_alt;strokeColor=#232F3E;fillColor=none;verticalAlign=top;align=left;spacingLeft=30;fontColor=#232F3E;dashed=0;" vertex="1" parent="LGWR-m-QxM4RFgHYod-S-31">
          <mxGeometry y="133" width="950" height="570" as="geometry" />
        </mxCell>
        <mxCell id="LGWR-m-QxM4RFgHYod-S-33" style="edgeStyle=orthogonalEdgeStyle;rounded=0;orthogonalLoop=1;jettySize=auto;html=1;entryX=0.5;entryY=1;entryDx=0;entryDy=0;strokeColor=#808080;" edge="1" parent="LGWR-m-QxM4RFgHYod-S-32" source="LGWR-m-QxM4RFgHYod-S-34" target="LGWR-m-QxM4RFgHYod-S-76">
          <mxGeometry relative="1" as="geometry" />
        </mxCell>
        <mxCell id="LGWR-m-QxM4RFgHYod-S-34" value="Production Account" style="points=[[0,0],[0.25,0],[0.5,0],[0.75,0],[1,0],[1,0.25],[1,0.5],[1,0.75],[1,1],[0.75,1],[0.5,1],[0.25,1],[0,1],[0,0.75],[0,0.5],[0,0.25]];outlineConnect=0;gradientColor=none;html=1;whiteSpace=wrap;fontSize=12;fontStyle=0;container=1;pointerEvents=0;collapsible=0;recursiveResize=0;shape=mxgraph.aws4.group;grIcon=mxgraph.aws4.group_account;strokeColor=#CD2264;fillColor=none;verticalAlign=top;align=left;spacingLeft=30;fontColor=#CD2264;dashed=0;" vertex="1" parent="LGWR-m-QxM4RFgHYod-S-32">
          <mxGeometry x="710" y="318" width="195" height="190" as="geometry" />
        </mxCell>
        <mxCell id="LGWR-m-QxM4RFgHYod-S-35" value="&lt;font style=&quot;&quot; color=&quot;#006633&quot;&gt;PROD&lt;/font&gt;" style="points=[[0,0],[0.25,0],[0.5,0],[0.75,0],[1,0],[1,0.25],[1,0.5],[1,0.75],[1,1],[0.75,1],[0.5,1],[0.25,1],[0,1],[0,0.75],[0,0.5],[0,0.25]];outlineConnect=0;gradientColor=none;html=1;whiteSpace=wrap;fontSize=12;fontStyle=0;container=1;pointerEvents=0;collapsible=0;recursiveResize=0;shape=mxgraph.aws4.group;grIcon=mxgraph.aws4.group_vpc;strokeColor=#248814;fillColor=none;verticalAlign=top;align=left;spacingLeft=30;fontColor=#AAB7B8;dashed=0;" vertex="1" parent="LGWR-m-QxM4RFgHYod-S-34">
          <mxGeometry x="32.5" y="40" width="130" height="130" as="geometry" />
        </mxCell>
        <mxCell id="LGWR-m-QxM4RFgHYod-S-36" value="" style="sketch=0;points=[[0,0,0],[0.25,0,0],[0.5,0,0],[0.75,0,0],[1,0,0],[0,1,0],[0.25,1,0],[0.5,1,0],[0.75,1,0],[1,1,0],[0,0.25,0],[0,0.5,0],[0,0.75,0],[1,0.25,0],[1,0.5,0],[1,0.75,0]];outlineConnect=0;fontColor=#232F3E;gradientColor=#F78E04;gradientDirection=north;fillColor=#D05C17;strokeColor=#ffffff;dashed=0;verticalLabelPosition=bottom;verticalAlign=top;align=center;html=1;fontSize=12;fontStyle=0;aspect=fixed;shape=mxgraph.aws4.resourceIcon;resIcon=mxgraph.aws4.ec2;" vertex="1" parent="LGWR-m-QxM4RFgHYod-S-35">
          <mxGeometry x="44" y="40" width="42" height="42" as="geometry" />
        </mxCell>
        <mxCell id="LGWR-m-QxM4RFgHYod-S-37" value="" style="sketch=0;points=[[0,0,0],[0.25,0,0],[0.5,0,0],[0.75,0,0],[1,0,0],[0,1,0],[0.25,1,0],[0.5,1,0],[0.75,1,0],[1,1,0],[0,0.25,0],[0,0.5,0],[0,0.75,0],[1,0.25,0],[1,0.5,0],[1,0.75,0]];outlineConnect=0;fontColor=#232F3E;gradientColor=#F78E04;gradientDirection=north;fillColor=#D05C17;strokeColor=#ffffff;dashed=0;verticalLabelPosition=bottom;verticalAlign=top;align=center;html=1;fontSize=12;fontStyle=0;aspect=fixed;shape=mxgraph.aws4.resourceIcon;resIcon=mxgraph.aws4.ec2;" vertex="1" parent="LGWR-m-QxM4RFgHYod-S-35">
          <mxGeometry x="80" y="68" width="42" height="42" as="geometry" />
        </mxCell>
        <mxCell id="LGWR-m-QxM4RFgHYod-S-38" value="" style="sketch=0;points=[[0,0,0],[0.25,0,0],[0.5,0,0],[0.75,0,0],[1,0,0],[0,1,0],[0.25,1,0],[0.5,1,0],[0.75,1,0],[1,1,0],[0,0.25,0],[0,0.5,0],[0,0.75,0],[1,0.25,0],[1,0.5,0],[1,0.75,0]];outlineConnect=0;fontColor=#232F3E;gradientColor=#F78E04;gradientDirection=north;fillColor=#D05C17;strokeColor=#ffffff;dashed=0;verticalLabelPosition=bottom;verticalAlign=top;align=center;html=1;fontSize=12;fontStyle=0;aspect=fixed;shape=mxgraph.aws4.resourceIcon;resIcon=mxgraph.aws4.ec2;" vertex="1" parent="LGWR-m-QxM4RFgHYod-S-35">
          <mxGeometry x="10" y="68" width="42" height="42" as="geometry" />
        </mxCell>
        <mxCell id="LGWR-m-QxM4RFgHYod-S-39" style="edgeStyle=orthogonalEdgeStyle;rounded=0;orthogonalLoop=1;jettySize=auto;html=1;entryX=0.75;entryY=1;entryDx=0;entryDy=0;strokeColor=#808080;" edge="1" parent="LGWR-m-QxM4RFgHYod-S-32" source="LGWR-m-QxM4RFgHYod-S-40" target="LGWR-m-QxM4RFgHYod-S-73">
          <mxGeometry relative="1" as="geometry">
            <Array as="points">
              <mxPoint x="585" y="270" />
              <mxPoint x="409" y="270" />
            </Array>
          </mxGeometry>
        </mxCell>
        <mxCell id="LGWR-m-QxM4RFgHYod-S-40" value="Staging Account" style="points=[[0,0],[0.25,0],[0.5,0],[0.75,0],[1,0],[1,0.25],[1,0.5],[1,0.75],[1,1],[0.75,1],[0.5,1],[0.25,1],[0,1],[0,0.75],[0,0.5],[0,0.25]];outlineConnect=0;gradientColor=none;html=1;whiteSpace=wrap;fontSize=12;fontStyle=0;container=1;pointerEvents=0;collapsible=0;recursiveResize=0;shape=mxgraph.aws4.group;grIcon=mxgraph.aws4.group_account;strokeColor=#CD2264;fillColor=none;verticalAlign=top;align=left;spacingLeft=30;fontColor=#CD2264;dashed=0;" vertex="1" parent="LGWR-m-QxM4RFgHYod-S-32">
          <mxGeometry x="487" y="321" width="195" height="190" as="geometry" />
        </mxCell>
        <mxCell id="LGWR-m-QxM4RFgHYod-S-41" value="&lt;font style=&quot;&quot; color=&quot;#006633&quot;&gt;STAGE&lt;/font&gt;" style="points=[[0,0],[0.25,0],[0.5,0],[0.75,0],[1,0],[1,0.25],[1,0.5],[1,0.75],[1,1],[0.75,1],[0.5,1],[0.25,1],[0,1],[0,0.75],[0,0.5],[0,0.25]];outlineConnect=0;gradientColor=none;html=1;whiteSpace=wrap;fontSize=12;fontStyle=0;container=1;pointerEvents=0;collapsible=0;recursiveResize=0;shape=mxgraph.aws4.group;grIcon=mxgraph.aws4.group_vpc;strokeColor=#248814;fillColor=none;verticalAlign=top;align=left;spacingLeft=30;fontColor=#AAB7B8;dashed=0;" vertex="1" parent="LGWR-m-QxM4RFgHYod-S-40">
          <mxGeometry x="32.5" y="40" width="130" height="130" as="geometry" />
        </mxCell>
        <mxCell id="LGWR-m-QxM4RFgHYod-S-42" value="" style="sketch=0;points=[[0,0,0],[0.25,0,0],[0.5,0,0],[0.75,0,0],[1,0,0],[0,1,0],[0.25,1,0],[0.5,1,0],[0.75,1,0],[1,1,0],[0,0.25,0],[0,0.5,0],[0,0.75,0],[1,0.25,0],[1,0.5,0],[1,0.75,0]];outlineConnect=0;fontColor=#232F3E;gradientColor=#F78E04;gradientDirection=north;fillColor=#D05C17;strokeColor=#ffffff;dashed=0;verticalLabelPosition=bottom;verticalAlign=top;align=center;html=1;fontSize=12;fontStyle=0;aspect=fixed;shape=mxgraph.aws4.resourceIcon;resIcon=mxgraph.aws4.ec2;" vertex="1" parent="LGWR-m-QxM4RFgHYod-S-41">
          <mxGeometry x="44" y="40" width="42" height="42" as="geometry" />
        </mxCell>
        <mxCell id="LGWR-m-QxM4RFgHYod-S-43" value="" style="sketch=0;points=[[0,0,0],[0.25,0,0],[0.5,0,0],[0.75,0,0],[1,0,0],[0,1,0],[0.25,1,0],[0.5,1,0],[0.75,1,0],[1,1,0],[0,0.25,0],[0,0.5,0],[0,0.75,0],[1,0.25,0],[1,0.5,0],[1,0.75,0]];outlineConnect=0;fontColor=#232F3E;gradientColor=#F78E04;gradientDirection=north;fillColor=#D05C17;strokeColor=#ffffff;dashed=0;verticalLabelPosition=bottom;verticalAlign=top;align=center;html=1;fontSize=12;fontStyle=0;aspect=fixed;shape=mxgraph.aws4.resourceIcon;resIcon=mxgraph.aws4.ec2;" vertex="1" parent="LGWR-m-QxM4RFgHYod-S-41">
          <mxGeometry x="80" y="68" width="42" height="42" as="geometry" />
        </mxCell>
        <mxCell id="LGWR-m-QxM4RFgHYod-S-44" value="" style="sketch=0;points=[[0,0,0],[0.25,0,0],[0.5,0,0],[0.75,0,0],[1,0,0],[0,1,0],[0.25,1,0],[0.5,1,0],[0.75,1,0],[1,1,0],[0,0.25,0],[0,0.5,0],[0,0.75,0],[1,0.25,0],[1,0.5,0],[1,0.75,0]];outlineConnect=0;fontColor=#232F3E;gradientColor=#F78E04;gradientDirection=north;fillColor=#D05C17;strokeColor=#ffffff;dashed=0;verticalLabelPosition=bottom;verticalAlign=top;align=center;html=1;fontSize=12;fontStyle=0;aspect=fixed;shape=mxgraph.aws4.resourceIcon;resIcon=mxgraph.aws4.ec2;" vertex="1" parent="LGWR-m-QxM4RFgHYod-S-41">
          <mxGeometry x="10" y="68" width="42" height="42" as="geometry" />
        </mxCell>
        <mxCell id="LGWR-m-QxM4RFgHYod-S-45" style="edgeStyle=orthogonalEdgeStyle;rounded=0;orthogonalLoop=1;jettySize=auto;html=1;exitX=0.5;exitY=0;exitDx=0;exitDy=0;strokeColor=#808080;" edge="1" parent="LGWR-m-QxM4RFgHYod-S-32" source="LGWR-m-QxM4RFgHYod-S-46" target="LGWR-m-QxM4RFgHYod-S-73">
          <mxGeometry relative="1" as="geometry" />
        </mxCell>
        <mxCell id="LGWR-m-QxM4RFgHYod-S-46" value="Testing Account" style="points=[[0,0],[0.25,0],[0.5,0],[0.75,0],[1,0],[1,0.25],[1,0.5],[1,0.75],[1,1],[0.75,1],[0.5,1],[0.25,1],[0,1],[0,0.75],[0,0.5],[0,0.25]];outlineConnect=0;gradientColor=none;html=1;whiteSpace=wrap;fontSize=12;fontStyle=0;container=1;pointerEvents=0;collapsible=0;recursiveResize=0;shape=mxgraph.aws4.group;grIcon=mxgraph.aws4.group_account;strokeColor=#CD2264;fillColor=none;verticalAlign=top;align=left;spacingLeft=30;fontColor=#CD2264;dashed=0;" vertex="1" parent="LGWR-m-QxM4RFgHYod-S-32">
          <mxGeometry x="263" y="321" width="195" height="190" as="geometry" />
        </mxCell>
        <mxCell id="LGWR-m-QxM4RFgHYod-S-47" value="&lt;font style=&quot;&quot; color=&quot;#006633&quot;&gt;TEST&lt;/font&gt;" style="points=[[0,0],[0.25,0],[0.5,0],[0.75,0],[1,0],[1,0.25],[1,0.5],[1,0.75],[1,1],[0.75,1],[0.5,1],[0.25,1],[0,1],[0,0.75],[0,0.5],[0,0.25]];outlineConnect=0;gradientColor=none;html=1;whiteSpace=wrap;fontSize=12;fontStyle=0;container=1;pointerEvents=0;collapsible=0;recursiveResize=0;shape=mxgraph.aws4.group;grIcon=mxgraph.aws4.group_vpc;strokeColor=#248814;fillColor=none;verticalAlign=top;align=left;spacingLeft=30;fontColor=#AAB7B8;dashed=0;" vertex="1" parent="LGWR-m-QxM4RFgHYod-S-46">
          <mxGeometry x="32.5" y="40" width="130" height="130" as="geometry" />
        </mxCell>
        <mxCell id="LGWR-m-QxM4RFgHYod-S-48" value="" style="sketch=0;points=[[0,0,0],[0.25,0,0],[0.5,0,0],[0.75,0,0],[1,0,0],[0,1,0],[0.25,1,0],[0.5,1,0],[0.75,1,0],[1,1,0],[0,0.25,0],[0,0.5,0],[0,0.75,0],[1,0.25,0],[1,0.5,0],[1,0.75,0]];outlineConnect=0;fontColor=#232F3E;gradientColor=#F78E04;gradientDirection=north;fillColor=#D05C17;strokeColor=#ffffff;dashed=0;verticalLabelPosition=bottom;verticalAlign=top;align=center;html=1;fontSize=12;fontStyle=0;aspect=fixed;shape=mxgraph.aws4.resourceIcon;resIcon=mxgraph.aws4.ec2;" vertex="1" parent="LGWR-m-QxM4RFgHYod-S-47">
          <mxGeometry x="44" y="40" width="42" height="42" as="geometry" />
        </mxCell>
        <mxCell id="LGWR-m-QxM4RFgHYod-S-49" value="" style="sketch=0;points=[[0,0,0],[0.25,0,0],[0.5,0,0],[0.75,0,0],[1,0,0],[0,1,0],[0.25,1,0],[0.5,1,0],[0.75,1,0],[1,1,0],[0,0.25,0],[0,0.5,0],[0,0.75,0],[1,0.25,0],[1,0.5,0],[1,0.75,0]];outlineConnect=0;fontColor=#232F3E;gradientColor=#F78E04;gradientDirection=north;fillColor=#D05C17;strokeColor=#ffffff;dashed=0;verticalLabelPosition=bottom;verticalAlign=top;align=center;html=1;fontSize=12;fontStyle=0;aspect=fixed;shape=mxgraph.aws4.resourceIcon;resIcon=mxgraph.aws4.ec2;" vertex="1" parent="LGWR-m-QxM4RFgHYod-S-47">
          <mxGeometry x="80" y="68" width="42" height="42" as="geometry" />
        </mxCell>
        <mxCell id="LGWR-m-QxM4RFgHYod-S-50" value="" style="sketch=0;points=[[0,0,0],[0.25,0,0],[0.5,0,0],[0.75,0,0],[1,0,0],[0,1,0],[0.25,1,0],[0.5,1,0],[0.75,1,0],[1,1,0],[0,0.25,0],[0,0.5,0],[0,0.75,0],[1,0.25,0],[1,0.5,0],[1,0.75,0]];outlineConnect=0;fontColor=#232F3E;gradientColor=#F78E04;gradientDirection=north;fillColor=#D05C17;strokeColor=#ffffff;dashed=0;verticalLabelPosition=bottom;verticalAlign=top;align=center;html=1;fontSize=12;fontStyle=0;aspect=fixed;shape=mxgraph.aws4.resourceIcon;resIcon=mxgraph.aws4.ec2;" vertex="1" parent="LGWR-m-QxM4RFgHYod-S-47">
          <mxGeometry x="10" y="68" width="42" height="42" as="geometry" />
        </mxCell>
        <mxCell id="LGWR-m-QxM4RFgHYod-S-51" value="" style="group" vertex="1" connectable="0" parent="LGWR-m-QxM4RFgHYod-S-32">
          <mxGeometry x="885" y="393" width="40" height="40" as="geometry" />
        </mxCell>
        <mxCell id="LGWR-m-QxM4RFgHYod-S-52" value="" style="ellipse;whiteSpace=wrap;html=1;aspect=fixed;strokeColor=none;" vertex="1" parent="LGWR-m-QxM4RFgHYod-S-51">
          <mxGeometry width="40" height="40" as="geometry" />
        </mxCell>
        <mxCell id="LGWR-m-QxM4RFgHYod-S-53" value="" style="sketch=0;outlineConnect=0;fontColor=#232F3E;gradientColor=none;fillColor=#BF0816;strokeColor=none;dashed=0;verticalLabelPosition=bottom;verticalAlign=top;align=center;html=1;fontSize=12;fontStyle=0;aspect=fixed;pointerEvents=1;shape=mxgraph.aws4.network_firewall_endpoints;" vertex="1" parent="LGWR-m-QxM4RFgHYod-S-51">
          <mxGeometry x="1" y="1" width="38" height="38" as="geometry" />
        </mxCell>
        <mxCell id="LGWR-m-QxM4RFgHYod-S-54" style="edgeStyle=orthogonalEdgeStyle;rounded=0;orthogonalLoop=1;jettySize=auto;html=1;entryX=0.25;entryY=1;entryDx=0;entryDy=0;strokeColor=#808080;" edge="1" parent="LGWR-m-QxM4RFgHYod-S-32" source="LGWR-m-QxM4RFgHYod-S-55" target="LGWR-m-QxM4RFgHYod-S-73">
          <mxGeometry relative="1" as="geometry">
            <Array as="points">
              <mxPoint x="138" y="270" />
              <mxPoint x="312" y="270" />
            </Array>
          </mxGeometry>
        </mxCell>
        <mxCell id="LGWR-m-QxM4RFgHYod-S-55" value="Development Account" style="points=[[0,0],[0.25,0],[0.5,0],[0.75,0],[1,0],[1,0.25],[1,0.5],[1,0.75],[1,1],[0.75,1],[0.5,1],[0.25,1],[0,1],[0,0.75],[0,0.5],[0,0.25]];outlineConnect=0;gradientColor=none;html=1;whiteSpace=wrap;fontSize=12;fontStyle=0;container=1;pointerEvents=0;collapsible=0;recursiveResize=0;shape=mxgraph.aws4.group;grIcon=mxgraph.aws4.group_account;strokeColor=#CD2264;fillColor=none;verticalAlign=top;align=left;spacingLeft=30;fontColor=#CD2264;dashed=0;" vertex="1" parent="LGWR-m-QxM4RFgHYod-S-32">
          <mxGeometry x="40" y="321" width="195" height="190" as="geometry" />
        </mxCell>
        <mxCell id="LGWR-m-QxM4RFgHYod-S-56" value="&lt;font style=&quot;&quot; color=&quot;#006633&quot;&gt;DEV&lt;/font&gt;" style="points=[[0,0],[0.25,0],[0.5,0],[0.75,0],[1,0],[1,0.25],[1,0.5],[1,0.75],[1,1],[0.75,1],[0.5,1],[0.25,1],[0,1],[0,0.75],[0,0.5],[0,0.25]];outlineConnect=0;gradientColor=none;html=1;whiteSpace=wrap;fontSize=12;fontStyle=0;container=1;pointerEvents=0;collapsible=0;recursiveResize=0;shape=mxgraph.aws4.group;grIcon=mxgraph.aws4.group_vpc;strokeColor=#248814;fillColor=none;verticalAlign=top;align=left;spacingLeft=30;fontColor=#AAB7B8;dashed=0;" vertex="1" parent="LGWR-m-QxM4RFgHYod-S-55">
          <mxGeometry x="32.5" y="40" width="130" height="130" as="geometry" />
        </mxCell>
        <mxCell id="LGWR-m-QxM4RFgHYod-S-57" value="" style="sketch=0;points=[[0,0,0],[0.25,0,0],[0.5,0,0],[0.75,0,0],[1,0,0],[0,1,0],[0.25,1,0],[0.5,1,0],[0.75,1,0],[1,1,0],[0,0.25,0],[0,0.5,0],[0,0.75,0],[1,0.25,0],[1,0.5,0],[1,0.75,0]];outlineConnect=0;fontColor=#232F3E;gradientColor=#F78E04;gradientDirection=north;fillColor=#D05C17;strokeColor=#ffffff;dashed=0;verticalLabelPosition=bottom;verticalAlign=top;align=center;html=1;fontSize=12;fontStyle=0;aspect=fixed;shape=mxgraph.aws4.resourceIcon;resIcon=mxgraph.aws4.ec2;" vertex="1" parent="LGWR-m-QxM4RFgHYod-S-56">
          <mxGeometry x="44" y="40" width="42" height="42" as="geometry" />
        </mxCell>
        <mxCell id="LGWR-m-QxM4RFgHYod-S-58" value="" style="sketch=0;points=[[0,0,0],[0.25,0,0],[0.5,0,0],[0.75,0,0],[1,0,0],[0,1,0],[0.25,1,0],[0.5,1,0],[0.75,1,0],[1,1,0],[0,0.25,0],[0,0.5,0],[0,0.75,0],[1,0.25,0],[1,0.5,0],[1,0.75,0]];outlineConnect=0;fontColor=#232F3E;gradientColor=#F78E04;gradientDirection=north;fillColor=#D05C17;strokeColor=#ffffff;dashed=0;verticalLabelPosition=bottom;verticalAlign=top;align=center;html=1;fontSize=12;fontStyle=0;aspect=fixed;shape=mxgraph.aws4.resourceIcon;resIcon=mxgraph.aws4.ec2;" vertex="1" parent="LGWR-m-QxM4RFgHYod-S-56">
          <mxGeometry x="80" y="68" width="42" height="42" as="geometry" />
        </mxCell>
        <mxCell id="LGWR-m-QxM4RFgHYod-S-59" value="" style="sketch=0;points=[[0,0,0],[0.25,0,0],[0.5,0,0],[0.75,0,0],[1,0,0],[0,1,0],[0.25,1,0],[0.5,1,0],[0.75,1,0],[1,1,0],[0,0.25,0],[0,0.5,0],[0,0.75,0],[1,0.25,0],[1,0.5,0],[1,0.75,0]];outlineConnect=0;fontColor=#232F3E;gradientColor=#F78E04;gradientDirection=north;fillColor=#D05C17;strokeColor=#ffffff;dashed=0;verticalLabelPosition=bottom;verticalAlign=top;align=center;html=1;fontSize=12;fontStyle=0;aspect=fixed;shape=mxgraph.aws4.resourceIcon;resIcon=mxgraph.aws4.ec2;" vertex="1" parent="LGWR-m-QxM4RFgHYod-S-56">
          <mxGeometry x="10" y="68" width="42" height="42" as="geometry" />
        </mxCell>
        <mxCell id="LGWR-m-QxM4RFgHYod-S-60" value="" style="group" vertex="1" connectable="0" parent="LGWR-m-QxM4RFgHYod-S-32">
          <mxGeometry x="569" y="488" width="40" height="40" as="geometry" />
        </mxCell>
        <mxCell id="LGWR-m-QxM4RFgHYod-S-61" value="" style="ellipse;whiteSpace=wrap;html=1;aspect=fixed;strokeColor=none;" vertex="1" parent="LGWR-m-QxM4RFgHYod-S-60">
          <mxGeometry width="40" height="40" as="geometry" />
        </mxCell>
        <mxCell id="LGWR-m-QxM4RFgHYod-S-62" value="" style="sketch=0;outlineConnect=0;fontColor=#232F3E;gradientColor=none;fillColor=#BF0816;strokeColor=none;dashed=0;verticalLabelPosition=bottom;verticalAlign=top;align=center;html=1;fontSize=12;fontStyle=0;aspect=fixed;pointerEvents=1;shape=mxgraph.aws4.addon;" vertex="1" parent="LGWR-m-QxM4RFgHYod-S-60">
          <mxGeometry x="0.5" y="10" width="39" height="20" as="geometry" />
        </mxCell>
        <mxCell id="LGWR-m-QxM4RFgHYod-S-63" value="" style="group" vertex="1" connectable="0" parent="LGWR-m-QxM4RFgHYod-S-32">
          <mxGeometry x="119" y="488" width="40" height="40" as="geometry" />
        </mxCell>
        <mxCell id="LGWR-m-QxM4RFgHYod-S-64" value="" style="ellipse;whiteSpace=wrap;html=1;aspect=fixed;strokeColor=none;" vertex="1" parent="LGWR-m-QxM4RFgHYod-S-63">
          <mxGeometry width="40" height="40" as="geometry" />
        </mxCell>
        <mxCell id="LGWR-m-QxM4RFgHYod-S-65" value="" style="sketch=0;outlineConnect=0;fontColor=#232F3E;gradientColor=none;fillColor=#BF0816;strokeColor=none;dashed=0;verticalLabelPosition=bottom;verticalAlign=top;align=center;html=1;fontSize=12;fontStyle=0;aspect=fixed;pointerEvents=1;shape=mxgraph.aws4.addon;" vertex="1" parent="LGWR-m-QxM4RFgHYod-S-63">
          <mxGeometry x="0.5" y="10" width="39" height="20" as="geometry" />
        </mxCell>
        <mxCell id="LGWR-m-QxM4RFgHYod-S-66" value="" style="ellipse;whiteSpace=wrap;html=1;aspect=fixed;strokeColor=none;" vertex="1" parent="LGWR-m-QxM4RFgHYod-S-32">
          <mxGeometry x="796" y="488" width="40" height="40" as="geometry" />
        </mxCell>
        <mxCell id="LGWR-m-QxM4RFgHYod-S-67" value="" style="sketch=0;outlineConnect=0;fontColor=#232F3E;gradientColor=none;fillColor=#BF0816;strokeColor=none;dashed=0;verticalLabelPosition=bottom;verticalAlign=top;align=center;html=1;fontSize=12;fontStyle=0;aspect=fixed;pointerEvents=1;shape=mxgraph.aws4.temporary_security_credential;" vertex="1" parent="LGWR-m-QxM4RFgHYod-S-32">
          <mxGeometry x="796.5" y="498" width="39" height="20" as="geometry" />
        </mxCell>
        <mxCell id="LGWR-m-QxM4RFgHYod-S-68" value="" style="group" vertex="1" connectable="0" parent="LGWR-m-QxM4RFgHYod-S-32">
          <mxGeometry x="344" y="488" width="40" height="40" as="geometry" />
        </mxCell>
        <mxCell id="LGWR-m-QxM4RFgHYod-S-69" value="" style="ellipse;whiteSpace=wrap;html=1;aspect=fixed;strokeColor=none;" vertex="1" parent="LGWR-m-QxM4RFgHYod-S-68">
          <mxGeometry width="40" height="40" as="geometry" />
        </mxCell>
        <mxCell id="LGWR-m-QxM4RFgHYod-S-70" value="" style="sketch=0;outlineConnect=0;fontColor=#232F3E;gradientColor=none;fillColor=#BF0816;strokeColor=none;dashed=0;verticalLabelPosition=bottom;verticalAlign=top;align=center;html=1;fontSize=12;fontStyle=0;aspect=fixed;pointerEvents=1;shape=mxgraph.aws4.addon;" vertex="1" parent="LGWR-m-QxM4RFgHYod-S-68">
          <mxGeometry x="0.5" y="10" width="39" height="20" as="geometry" />
        </mxCell>
        <mxCell id="LGWR-m-QxM4RFgHYod-S-71" value="" style="line;strokeWidth=1;html=1;dashed=1;strokeColor=#808080;" vertex="1" parent="LGWR-m-QxM4RFgHYod-S-32">
          <mxGeometry x="10" y="280" width="930" height="10" as="geometry" />
        </mxCell>
        <mxCell id="LGWR-m-QxM4RFgHYod-S-72" value="Contas de Backup" style="text;html=1;strokeColor=none;fillColor=none;align=center;verticalAlign=middle;whiteSpace=wrap;rounded=0;" vertex="1" parent="LGWR-m-QxM4RFgHYod-S-32">
          <mxGeometry x="10" y="250" width="110" height="30" as="geometry" />
        </mxCell>
        <mxCell id="LGWR-m-QxM4RFgHYod-S-73" value="Non-Prod Backup Account" style="points=[[0,0],[0.25,0],[0.5,0],[0.75,0],[1,0],[1,0.25],[1,0.5],[1,0.75],[1,1],[0.75,1],[0.5,1],[0.25,1],[0,1],[0,0.75],[0,0.5],[0,0.25]];outlineConnect=0;gradientColor=none;html=1;whiteSpace=wrap;fontSize=12;fontStyle=0;container=1;pointerEvents=0;collapsible=0;recursiveResize=0;shape=mxgraph.aws4.group;grIcon=mxgraph.aws4.group_account;strokeColor=#CD2264;fillColor=none;verticalAlign=top;align=left;spacingLeft=30;fontColor=#CD2264;dashed=0;" vertex="1" parent="LGWR-m-QxM4RFgHYod-S-32">
          <mxGeometry x="263" y="40" width="195" height="190" as="geometry" />
        </mxCell>
        <mxCell id="LGWR-m-QxM4RFgHYod-S-74" value="&lt;font style=&quot;font-size: 11px;&quot; color=&quot;#006633&quot;&gt;Non-Prod Backups&lt;/font&gt;" style="points=[[0,0],[0.25,0],[0.5,0],[0.75,0],[1,0],[1,0.25],[1,0.5],[1,0.75],[1,1],[0.75,1],[0.5,1],[0.25,1],[0,1],[0,0.75],[0,0.5],[0,0.25]];outlineConnect=0;gradientColor=none;html=1;whiteSpace=wrap;fontSize=12;fontStyle=0;container=1;pointerEvents=0;collapsible=0;recursiveResize=0;shape=mxgraph.aws4.group;grIcon=mxgraph.aws4.group_vpc;strokeColor=#248814;fillColor=none;verticalAlign=top;align=left;spacingLeft=30;fontColor=#AAB7B8;dashed=0;" vertex="1" parent="LGWR-m-QxM4RFgHYod-S-73">
          <mxGeometry x="32.5" y="40" width="130" height="130" as="geometry" />
        </mxCell>
        <mxCell id="LGWR-m-QxM4RFgHYod-S-75" value="Non-Prod Backups" style="sketch=0;points=[[0,0,0],[0.25,0,0],[0.5,0,0],[0.75,0,0],[1,0,0],[0,1,0],[0.25,1,0],[0.5,1,0],[0.75,1,0],[1,1,0],[0,0.25,0],[0,0.5,0],[0,0.75,0],[1,0.25,0],[1,0.5,0],[1,0.75,0]];outlineConnect=0;fontColor=#232F3E;gradientColor=#60A337;gradientDirection=north;fillColor=#277116;strokeColor=#ffffff;dashed=0;verticalLabelPosition=bottom;verticalAlign=top;align=center;html=1;fontSize=12;fontStyle=0;aspect=fixed;shape=mxgraph.aws4.resourceIcon;resIcon=mxgraph.aws4.backup;" vertex="1" parent="LGWR-m-QxM4RFgHYod-S-74">
          <mxGeometry x="36" y="42" width="58" height="58" as="geometry" />
        </mxCell>
        <mxCell id="LGWR-m-QxM4RFgHYod-S-76" value="Production Backup Account" style="points=[[0,0],[0.25,0],[0.5,0],[0.75,0],[1,0],[1,0.25],[1,0.5],[1,0.75],[1,1],[0.75,1],[0.5,1],[0.25,1],[0,1],[0,0.75],[0,0.5],[0,0.25]];outlineConnect=0;gradientColor=none;html=1;whiteSpace=wrap;fontSize=12;fontStyle=0;container=1;pointerEvents=0;collapsible=0;recursiveResize=0;shape=mxgraph.aws4.group;grIcon=mxgraph.aws4.group_account;strokeColor=#CD2264;fillColor=none;verticalAlign=top;align=left;spacingLeft=30;fontColor=#CD2264;dashed=0;" vertex="1" parent="LGWR-m-QxM4RFgHYod-S-32">
          <mxGeometry x="710" y="40" width="195" height="190" as="geometry" />
        </mxCell>
        <mxCell id="LGWR-m-QxM4RFgHYod-S-77" value="&lt;font style=&quot;font-size: 11px;&quot; color=&quot;#006633&quot;&gt;PROD Backups&lt;/font&gt;" style="points=[[0,0],[0.25,0],[0.5,0],[0.75,0],[1,0],[1,0.25],[1,0.5],[1,0.75],[1,1],[0.75,1],[0.5,1],[0.25,1],[0,1],[0,0.75],[0,0.5],[0,0.25]];outlineConnect=0;gradientColor=none;html=1;whiteSpace=wrap;fontSize=12;fontStyle=0;container=1;pointerEvents=0;collapsible=0;recursiveResize=0;shape=mxgraph.aws4.group;grIcon=mxgraph.aws4.group_vpc;strokeColor=#248814;fillColor=none;verticalAlign=top;align=left;spacingLeft=30;fontColor=#AAB7B8;dashed=0;" vertex="1" parent="LGWR-m-QxM4RFgHYod-S-76">
          <mxGeometry x="32.5" y="40" width="130" height="130" as="geometry" />
        </mxCell>
        <mxCell id="LGWR-m-QxM4RFgHYod-S-78" value="Production Backups" style="sketch=0;points=[[0,0,0],[0.25,0,0],[0.5,0,0],[0.75,0,0],[1,0,0],[0,1,0],[0.25,1,0],[0.5,1,0],[0.75,1,0],[1,1,0],[0,0.25,0],[0,0.5,0],[0,0.75,0],[1,0.25,0],[1,0.5,0],[1,0.75,0]];outlineConnect=0;fontColor=#232F3E;gradientColor=#60A337;gradientDirection=north;fillColor=#277116;strokeColor=#ffffff;dashed=0;verticalLabelPosition=bottom;verticalAlign=top;align=center;html=1;fontSize=12;fontStyle=0;aspect=fixed;shape=mxgraph.aws4.resourceIcon;resIcon=mxgraph.aws4.backup;" vertex="1" parent="LGWR-m-QxM4RFgHYod-S-77">
          <mxGeometry x="36" y="42" width="58" height="58" as="geometry" />
        </mxCell>
        <mxCell id="LGWR-m-QxM4RFgHYod-S-79" value="" style="group" vertex="1" connectable="0" parent="LGWR-m-QxM4RFgHYod-S-32">
          <mxGeometry x="334" y="7" width="40" height="40" as="geometry" />
        </mxCell>
        <mxCell id="LGWR-m-QxM4RFgHYod-S-80" value="" style="ellipse;whiteSpace=wrap;html=1;aspect=fixed;strokeColor=none;" vertex="1" parent="LGWR-m-QxM4RFgHYod-S-79">
          <mxGeometry width="40" height="40" as="geometry" />
        </mxCell>
        <mxCell id="LGWR-m-QxM4RFgHYod-S-81" value="" style="sketch=0;outlineConnect=0;fontColor=#232F3E;gradientColor=none;fillColor=#BF0816;strokeColor=none;dashed=0;verticalLabelPosition=bottom;verticalAlign=top;align=center;html=1;fontSize=12;fontStyle=0;aspect=fixed;pointerEvents=1;shape=mxgraph.aws4.temporary_security_credential;" vertex="1" parent="LGWR-m-QxM4RFgHYod-S-79">
          <mxGeometry x="0.5" y="10" width="39" height="20" as="geometry" />
        </mxCell>
        <mxCell id="LGWR-m-QxM4RFgHYod-S-82" value="" style="group" vertex="1" connectable="0" parent="LGWR-m-QxM4RFgHYod-S-32">
          <mxGeometry x="787.5" y="7" width="40" height="40" as="geometry" />
        </mxCell>
        <mxCell id="LGWR-m-QxM4RFgHYod-S-83" value="" style="ellipse;whiteSpace=wrap;html=1;aspect=fixed;strokeColor=none;" vertex="1" parent="LGWR-m-QxM4RFgHYod-S-82">
          <mxGeometry width="40" height="40" as="geometry" />
        </mxCell>
        <mxCell id="LGWR-m-QxM4RFgHYod-S-84" value="" style="sketch=0;outlineConnect=0;fontColor=#232F3E;gradientColor=none;fillColor=#BF0816;strokeColor=none;dashed=0;verticalLabelPosition=bottom;verticalAlign=top;align=center;html=1;fontSize=12;fontStyle=0;aspect=fixed;pointerEvents=1;shape=mxgraph.aws4.temporary_security_credential;" vertex="1" parent="LGWR-m-QxM4RFgHYod-S-82">
          <mxGeometry x="0.5" y="10" width="39" height="20" as="geometry" />
        </mxCell>
        <mxCell id="LGWR-m-QxM4RFgHYod-S-85" style="edgeStyle=orthogonalEdgeStyle;rounded=0;orthogonalLoop=1;jettySize=auto;html=1;strokeColor=#808080;endArrow=classic;endFill=1;" edge="1" parent="LGWR-m-QxM4RFgHYod-S-31" source="LGWR-m-QxM4RFgHYod-S-86" target="LGWR-m-QxM4RFgHYod-S-70">
          <mxGeometry relative="1" as="geometry" />
        </mxCell>
        <mxCell id="LGWR-m-QxM4RFgHYod-S-86" value="Testadores" style="outlineConnect=0;fontColor=#232F3E;gradientColor=none;fillColor=#232F3D;strokeColor=none;dashed=0;verticalLabelPosition=bottom;verticalAlign=top;align=center;html=1;fontSize=12;fontStyle=0;aspect=fixed;pointerEvents=1;shape=mxgraph.aws4.users;strokeWidth=1;shadow=0;" vertex="1" parent="LGWR-m-QxM4RFgHYod-S-31">
          <mxGeometry x="325" y="720" width="78" height="78" as="geometry" />
        </mxCell>
        <mxCell id="LGWR-m-QxM4RFgHYod-S-87" style="edgeStyle=orthogonalEdgeStyle;rounded=0;orthogonalLoop=1;jettySize=auto;html=1;strokeColor=#808080;" edge="1" parent="LGWR-m-QxM4RFgHYod-S-31" source="LGWR-m-QxM4RFgHYod-S-88" target="LGWR-m-QxM4RFgHYod-S-53">
          <mxGeometry relative="1" as="geometry" />
        </mxCell>
        <mxCell id="LGWR-m-QxM4RFgHYod-S-88" value="Clientes" style="outlineConnect=0;fontColor=#232F3E;gradientColor=none;fillColor=#232F3D;strokeColor=none;dashed=0;verticalLabelPosition=bottom;verticalAlign=top;align=center;html=1;fontSize=12;fontStyle=0;aspect=fixed;pointerEvents=1;shape=mxgraph.aws4.users;strokeWidth=1;shadow=0;" vertex="1" parent="LGWR-m-QxM4RFgHYod-S-31">
          <mxGeometry x="998" y="506" width="78" height="78" as="geometry" />
        </mxCell>
        <mxCell id="LGWR-m-QxM4RFgHYod-S-89" style="edgeStyle=orthogonalEdgeStyle;rounded=0;orthogonalLoop=1;jettySize=auto;html=1;strokeColor=#808080;endArrow=classic;endFill=1;" edge="1" parent="LGWR-m-QxM4RFgHYod-S-31" source="LGWR-m-QxM4RFgHYod-S-90" target="LGWR-m-QxM4RFgHYod-S-62">
          <mxGeometry relative="1" as="geometry" />
        </mxCell>
        <mxCell id="LGWR-m-QxM4RFgHYod-S-90" value="Desenvolvedores/Testadores" style="outlineConnect=0;fontColor=#232F3E;gradientColor=none;fillColor=#232F3D;strokeColor=none;dashed=0;verticalLabelPosition=bottom;verticalAlign=top;align=center;html=1;fontSize=12;fontStyle=0;aspect=fixed;pointerEvents=1;shape=mxgraph.aws4.users;strokeWidth=1;shadow=0;" vertex="1" parent="LGWR-m-QxM4RFgHYod-S-31">
          <mxGeometry x="550" y="720" width="78" height="78" as="geometry" />
        </mxCell>
        <mxCell id="LGWR-m-QxM4RFgHYod-S-91" style="edgeStyle=orthogonalEdgeStyle;rounded=0;orthogonalLoop=1;jettySize=auto;html=1;strokeColor=#808080;endArrow=classic;endFill=1;" edge="1" parent="LGWR-m-QxM4RFgHYod-S-31" source="LGWR-m-QxM4RFgHYod-S-92" target="LGWR-m-QxM4RFgHYod-S-65">
          <mxGeometry relative="1" as="geometry" />
        </mxCell>
        <mxCell id="LGWR-m-QxM4RFgHYod-S-92" value="Desenvolvedores" style="outlineConnect=0;fontColor=#232F3E;gradientColor=none;fillColor=#232F3D;strokeColor=none;dashed=0;verticalLabelPosition=bottom;verticalAlign=top;align=center;html=1;fontSize=12;fontStyle=0;aspect=fixed;pointerEvents=1;shape=mxgraph.aws4.users;strokeWidth=1;shadow=0;" vertex="1" parent="LGWR-m-QxM4RFgHYod-S-31">
          <mxGeometry x="100" y="720" width="78" height="78" as="geometry" />
        </mxCell>
        <mxCell id="LGWR-m-QxM4RFgHYod-S-93" style="edgeStyle=orthogonalEdgeStyle;rounded=0;orthogonalLoop=1;jettySize=auto;html=1;strokeColor=#808080;endArrow=classic;endFill=1;" edge="1" parent="LGWR-m-QxM4RFgHYod-S-31" source="LGWR-m-QxM4RFgHYod-S-94" target="LGWR-m-QxM4RFgHYod-S-67">
          <mxGeometry relative="1" as="geometry" />
        </mxCell>
        <mxCell id="LGWR-m-QxM4RFgHYod-S-94" value="Usuários com acesso limitado" style="outlineConnect=0;fontColor=#232F3E;gradientColor=none;fillColor=#232F3D;strokeColor=none;dashed=0;verticalLabelPosition=bottom;verticalAlign=top;align=center;html=1;fontSize=12;fontStyle=0;aspect=fixed;pointerEvents=1;shape=mxgraph.aws4.users;strokeWidth=1;shadow=0;" vertex="1" parent="LGWR-m-QxM4RFgHYod-S-31">
          <mxGeometry x="777" y="720" width="78" height="78" as="geometry" />
        </mxCell>
        <mxCell id="LGWR-m-QxM4RFgHYod-S-95" style="edgeStyle=orthogonalEdgeStyle;rounded=0;orthogonalLoop=1;jettySize=auto;html=1;strokeColor=#808080;" edge="1" parent="LGWR-m-QxM4RFgHYod-S-31" source="LGWR-m-QxM4RFgHYod-S-96" target="LGWR-m-QxM4RFgHYod-S-81">
          <mxGeometry relative="1" as="geometry" />
        </mxCell>
        <mxCell id="LGWR-m-QxM4RFgHYod-S-96" value="Usuários com acesso limitado" style="outlineConnect=0;fontColor=#232F3E;gradientColor=none;fillColor=#232F3D;strokeColor=none;dashed=0;verticalLabelPosition=bottom;verticalAlign=top;align=center;html=1;fontSize=12;fontStyle=0;aspect=fixed;pointerEvents=1;shape=mxgraph.aws4.users;strokeWidth=1;shadow=0;" vertex="1" parent="LGWR-m-QxM4RFgHYod-S-31">
          <mxGeometry x="315" width="78" height="78" as="geometry" />
        </mxCell>
        <mxCell id="LGWR-m-QxM4RFgHYod-S-97" style="edgeStyle=orthogonalEdgeStyle;rounded=0;orthogonalLoop=1;jettySize=auto;html=1;strokeColor=#808080;" edge="1" parent="LGWR-m-QxM4RFgHYod-S-31" source="LGWR-m-QxM4RFgHYod-S-98" target="LGWR-m-QxM4RFgHYod-S-84">
          <mxGeometry relative="1" as="geometry" />
        </mxCell>
        <mxCell id="LGWR-m-QxM4RFgHYod-S-98" value="Usuários com acesso limitado" style="outlineConnect=0;fontColor=#232F3E;gradientColor=none;fillColor=#232F3D;strokeColor=none;dashed=0;verticalLabelPosition=bottom;verticalAlign=top;align=center;html=1;fontSize=12;fontStyle=0;aspect=fixed;pointerEvents=1;shape=mxgraph.aws4.users;strokeWidth=1;shadow=0;" vertex="1" parent="LGWR-m-QxM4RFgHYod-S-31">
          <mxGeometry x="768.5" width="78" height="78" as="geometry" />
        </mxCell>
        <mxCell id="LGWR-m-QxM4RFgHYod-S-113" value="" style="group" vertex="1" connectable="0" parent="1">
          <mxGeometry x="50" y="1683" width="1076" height="798" as="geometry" />
        </mxCell>
        <mxCell id="xT3cx_YLARcE6HXCoQC6-124" value="AWS Cloud" style="points=[[0,0],[0.25,0],[0.5,0],[0.75,0],[1,0],[1,0.25],[1,0.5],[1,0.75],[1,1],[0.75,1],[0.5,1],[0.25,1],[0,1],[0,0.75],[0,0.5],[0,0.25]];outlineConnect=0;gradientColor=none;html=1;whiteSpace=wrap;fontSize=12;fontStyle=0;container=0;pointerEvents=0;collapsible=0;recursiveResize=0;shape=mxgraph.aws4.group;grIcon=mxgraph.aws4.group_aws_cloud_alt;strokeColor=#232F3E;fillColor=none;verticalAlign=top;align=left;spacingLeft=30;fontColor=#232F3E;dashed=0;" vertex="1" parent="LGWR-m-QxM4RFgHYod-S-113">
          <mxGeometry y="133" width="950" height="570" as="geometry" />
        </mxCell>
        <mxCell id="xT3cx_YLARcE6HXCoQC6-160" value="Testadores" style="outlineConnect=0;fontColor=#232F3E;gradientColor=none;fillColor=#232F3D;strokeColor=none;dashed=0;verticalLabelPosition=bottom;verticalAlign=top;align=center;html=1;fontSize=12;fontStyle=0;aspect=fixed;pointerEvents=1;shape=mxgraph.aws4.users;strokeWidth=1;shadow=0;" vertex="1" parent="LGWR-m-QxM4RFgHYod-S-113">
          <mxGeometry x="325" y="720" width="78" height="78" as="geometry" />
        </mxCell>
        <mxCell id="xT3cx_YLARcE6HXCoQC6-162" value="Clientes" style="outlineConnect=0;fontColor=#232F3E;gradientColor=none;fillColor=#232F3D;strokeColor=none;dashed=0;verticalLabelPosition=bottom;verticalAlign=top;align=center;html=1;fontSize=12;fontStyle=0;aspect=fixed;pointerEvents=1;shape=mxgraph.aws4.users;strokeWidth=1;shadow=0;" vertex="1" parent="LGWR-m-QxM4RFgHYod-S-113">
          <mxGeometry x="998" y="507" width="78" height="78" as="geometry" />
        </mxCell>
        <mxCell id="xT3cx_YLARcE6HXCoQC6-164" value="Desenvolvedores/Testadores" style="outlineConnect=0;fontColor=#232F3E;gradientColor=none;fillColor=#232F3D;strokeColor=none;dashed=0;verticalLabelPosition=bottom;verticalAlign=top;align=center;html=1;fontSize=12;fontStyle=0;aspect=fixed;pointerEvents=1;shape=mxgraph.aws4.users;strokeWidth=1;shadow=0;" vertex="1" parent="LGWR-m-QxM4RFgHYod-S-113">
          <mxGeometry x="550" y="720" width="78" height="78" as="geometry" />
        </mxCell>
        <mxCell id="xT3cx_YLARcE6HXCoQC6-166" value="Desenvolvedores" style="outlineConnect=0;fontColor=#232F3E;gradientColor=none;fillColor=#232F3D;strokeColor=none;dashed=0;verticalLabelPosition=bottom;verticalAlign=top;align=center;html=1;fontSize=12;fontStyle=0;aspect=fixed;pointerEvents=1;shape=mxgraph.aws4.users;strokeWidth=1;shadow=0;" vertex="1" parent="LGWR-m-QxM4RFgHYod-S-113">
          <mxGeometry x="100" y="720" width="78" height="78" as="geometry" />
        </mxCell>
        <mxCell id="xT3cx_YLARcE6HXCoQC6-168" value="Usuários com acesso limitado" style="outlineConnect=0;fontColor=#232F3E;gradientColor=none;fillColor=#232F3D;strokeColor=none;dashed=0;verticalLabelPosition=bottom;verticalAlign=top;align=center;html=1;fontSize=12;fontStyle=0;aspect=fixed;pointerEvents=1;shape=mxgraph.aws4.users;strokeWidth=1;shadow=0;" vertex="1" parent="LGWR-m-QxM4RFgHYod-S-113">
          <mxGeometry x="777" y="720" width="78" height="78" as="geometry" />
        </mxCell>
        <mxCell id="LGWR-m-QxM4RFgHYod-S-6" value="Administradores" style="outlineConnect=0;fontColor=#232F3E;gradientColor=none;fillColor=#232F3D;strokeColor=none;dashed=0;verticalLabelPosition=bottom;verticalAlign=top;align=center;html=1;fontSize=12;fontStyle=0;aspect=fixed;pointerEvents=1;shape=mxgraph.aws4.users;strokeWidth=1;shadow=0;" vertex="1" parent="LGWR-m-QxM4RFgHYod-S-113">
          <mxGeometry x="161" width="78" height="78" as="geometry" />
        </mxCell>
        <mxCell id="LGWR-m-QxM4RFgHYod-S-27" value="Acesso ao logs&lt;br&gt;(Observabilidade e APM)" style="outlineConnect=0;fontColor=#232F3E;gradientColor=none;fillColor=#232F3D;strokeColor=none;dashed=0;verticalLabelPosition=bottom;verticalAlign=top;align=center;html=1;fontSize=12;fontStyle=0;aspect=fixed;pointerEvents=1;shape=mxgraph.aws4.users;strokeWidth=1;shadow=0;" vertex="1" parent="LGWR-m-QxM4RFgHYod-S-113">
          <mxGeometry x="712.5" width="78" height="78" as="geometry" />
        </mxCell>
        <mxCell id="xT3cx_YLARcE6HXCoQC6-125" value="Production Account" style="points=[[0,0],[0.25,0],[0.5,0],[0.75,0],[1,0],[1,0.25],[1,0.5],[1,0.75],[1,1],[0.75,1],[0.5,1],[0.25,1],[0,1],[0,0.75],[0,0.5],[0,0.25]];outlineConnect=0;gradientColor=none;html=1;whiteSpace=wrap;fontSize=12;fontStyle=0;container=1;pointerEvents=0;collapsible=0;recursiveResize=0;shape=mxgraph.aws4.group;grIcon=mxgraph.aws4.group_account;strokeColor=#CD2264;fillColor=none;verticalAlign=top;align=left;spacingLeft=30;fontColor=#CD2264;dashed=0;" vertex="1" parent="LGWR-m-QxM4RFgHYod-S-113">
          <mxGeometry x="710" y="451" width="195" height="190" as="geometry" />
        </mxCell>
        <mxCell id="xT3cx_YLARcE6HXCoQC6-126" value="&lt;font style=&quot;&quot; color=&quot;#006633&quot;&gt;PROD&lt;/font&gt;" style="points=[[0,0],[0.25,0],[0.5,0],[0.75,0],[1,0],[1,0.25],[1,0.5],[1,0.75],[1,1],[0.75,1],[0.5,1],[0.25,1],[0,1],[0,0.75],[0,0.5],[0,0.25]];outlineConnect=0;gradientColor=none;html=1;whiteSpace=wrap;fontSize=12;fontStyle=0;container=1;pointerEvents=0;collapsible=0;recursiveResize=0;shape=mxgraph.aws4.group;grIcon=mxgraph.aws4.group_vpc;strokeColor=#248814;fillColor=none;verticalAlign=top;align=left;spacingLeft=30;fontColor=#AAB7B8;dashed=0;" vertex="1" parent="xT3cx_YLARcE6HXCoQC6-125">
          <mxGeometry x="32.5" y="40" width="130" height="130" as="geometry" />
        </mxCell>
        <mxCell id="xT3cx_YLARcE6HXCoQC6-127" value="" style="sketch=0;points=[[0,0,0],[0.25,0,0],[0.5,0,0],[0.75,0,0],[1,0,0],[0,1,0],[0.25,1,0],[0.5,1,0],[0.75,1,0],[1,1,0],[0,0.25,0],[0,0.5,0],[0,0.75,0],[1,0.25,0],[1,0.5,0],[1,0.75,0]];outlineConnect=0;fontColor=#232F3E;gradientColor=#F78E04;gradientDirection=north;fillColor=#D05C17;strokeColor=#ffffff;dashed=0;verticalLabelPosition=bottom;verticalAlign=top;align=center;html=1;fontSize=12;fontStyle=0;aspect=fixed;shape=mxgraph.aws4.resourceIcon;resIcon=mxgraph.aws4.ec2;" vertex="1" parent="xT3cx_YLARcE6HXCoQC6-126">
          <mxGeometry x="44" y="40" width="42" height="42" as="geometry" />
        </mxCell>
        <mxCell id="xT3cx_YLARcE6HXCoQC6-128" value="" style="sketch=0;points=[[0,0,0],[0.25,0,0],[0.5,0,0],[0.75,0,0],[1,0,0],[0,1,0],[0.25,1,0],[0.5,1,0],[0.75,1,0],[1,1,0],[0,0.25,0],[0,0.5,0],[0,0.75,0],[1,0.25,0],[1,0.5,0],[1,0.75,0]];outlineConnect=0;fontColor=#232F3E;gradientColor=#F78E04;gradientDirection=north;fillColor=#D05C17;strokeColor=#ffffff;dashed=0;verticalLabelPosition=bottom;verticalAlign=top;align=center;html=1;fontSize=12;fontStyle=0;aspect=fixed;shape=mxgraph.aws4.resourceIcon;resIcon=mxgraph.aws4.ec2;" vertex="1" parent="xT3cx_YLARcE6HXCoQC6-126">
          <mxGeometry x="80" y="68" width="42" height="42" as="geometry" />
        </mxCell>
        <mxCell id="xT3cx_YLARcE6HXCoQC6-129" value="" style="sketch=0;points=[[0,0,0],[0.25,0,0],[0.5,0,0],[0.75,0,0],[1,0,0],[0,1,0],[0.25,1,0],[0.5,1,0],[0.75,1,0],[1,1,0],[0,0.25,0],[0,0.5,0],[0,0.75,0],[1,0.25,0],[1,0.5,0],[1,0.75,0]];outlineConnect=0;fontColor=#232F3E;gradientColor=#F78E04;gradientDirection=north;fillColor=#D05C17;strokeColor=#ffffff;dashed=0;verticalLabelPosition=bottom;verticalAlign=top;align=center;html=1;fontSize=12;fontStyle=0;aspect=fixed;shape=mxgraph.aws4.resourceIcon;resIcon=mxgraph.aws4.ec2;" vertex="1" parent="xT3cx_YLARcE6HXCoQC6-126">
          <mxGeometry x="10" y="68" width="42" height="42" as="geometry" />
        </mxCell>
        <mxCell id="xT3cx_YLARcE6HXCoQC6-130" value="Staging Account" style="points=[[0,0],[0.25,0],[0.5,0],[0.75,0],[1,0],[1,0.25],[1,0.5],[1,0.75],[1,1],[0.75,1],[0.5,1],[0.25,1],[0,1],[0,0.75],[0,0.5],[0,0.25]];outlineConnect=0;gradientColor=none;html=1;whiteSpace=wrap;fontSize=12;fontStyle=0;container=1;pointerEvents=0;collapsible=0;recursiveResize=0;shape=mxgraph.aws4.group;grIcon=mxgraph.aws4.group_account;strokeColor=#CD2264;fillColor=none;verticalAlign=top;align=left;spacingLeft=30;fontColor=#CD2264;dashed=0;" vertex="1" parent="LGWR-m-QxM4RFgHYod-S-113">
          <mxGeometry x="487" y="454" width="195" height="190" as="geometry" />
        </mxCell>
        <mxCell id="xT3cx_YLARcE6HXCoQC6-131" value="&lt;font style=&quot;&quot; color=&quot;#006633&quot;&gt;STAGE&lt;/font&gt;" style="points=[[0,0],[0.25,0],[0.5,0],[0.75,0],[1,0],[1,0.25],[1,0.5],[1,0.75],[1,1],[0.75,1],[0.5,1],[0.25,1],[0,1],[0,0.75],[0,0.5],[0,0.25]];outlineConnect=0;gradientColor=none;html=1;whiteSpace=wrap;fontSize=12;fontStyle=0;container=1;pointerEvents=0;collapsible=0;recursiveResize=0;shape=mxgraph.aws4.group;grIcon=mxgraph.aws4.group_vpc;strokeColor=#248814;fillColor=none;verticalAlign=top;align=left;spacingLeft=30;fontColor=#AAB7B8;dashed=0;" vertex="1" parent="xT3cx_YLARcE6HXCoQC6-130">
          <mxGeometry x="32.5" y="40" width="130" height="130" as="geometry" />
        </mxCell>
        <mxCell id="xT3cx_YLARcE6HXCoQC6-132" value="" style="sketch=0;points=[[0,0,0],[0.25,0,0],[0.5,0,0],[0.75,0,0],[1,0,0],[0,1,0],[0.25,1,0],[0.5,1,0],[0.75,1,0],[1,1,0],[0,0.25,0],[0,0.5,0],[0,0.75,0],[1,0.25,0],[1,0.5,0],[1,0.75,0]];outlineConnect=0;fontColor=#232F3E;gradientColor=#F78E04;gradientDirection=north;fillColor=#D05C17;strokeColor=#ffffff;dashed=0;verticalLabelPosition=bottom;verticalAlign=top;align=center;html=1;fontSize=12;fontStyle=0;aspect=fixed;shape=mxgraph.aws4.resourceIcon;resIcon=mxgraph.aws4.ec2;" vertex="1" parent="xT3cx_YLARcE6HXCoQC6-131">
          <mxGeometry x="44" y="40" width="42" height="42" as="geometry" />
        </mxCell>
        <mxCell id="xT3cx_YLARcE6HXCoQC6-133" value="" style="sketch=0;points=[[0,0,0],[0.25,0,0],[0.5,0,0],[0.75,0,0],[1,0,0],[0,1,0],[0.25,1,0],[0.5,1,0],[0.75,1,0],[1,1,0],[0,0.25,0],[0,0.5,0],[0,0.75,0],[1,0.25,0],[1,0.5,0],[1,0.75,0]];outlineConnect=0;fontColor=#232F3E;gradientColor=#F78E04;gradientDirection=north;fillColor=#D05C17;strokeColor=#ffffff;dashed=0;verticalLabelPosition=bottom;verticalAlign=top;align=center;html=1;fontSize=12;fontStyle=0;aspect=fixed;shape=mxgraph.aws4.resourceIcon;resIcon=mxgraph.aws4.ec2;" vertex="1" parent="xT3cx_YLARcE6HXCoQC6-131">
          <mxGeometry x="80" y="68" width="42" height="42" as="geometry" />
        </mxCell>
        <mxCell id="xT3cx_YLARcE6HXCoQC6-134" value="" style="sketch=0;points=[[0,0,0],[0.25,0,0],[0.5,0,0],[0.75,0,0],[1,0,0],[0,1,0],[0.25,1,0],[0.5,1,0],[0.75,1,0],[1,1,0],[0,0.25,0],[0,0.5,0],[0,0.75,0],[1,0.25,0],[1,0.5,0],[1,0.75,0]];outlineConnect=0;fontColor=#232F3E;gradientColor=#F78E04;gradientDirection=north;fillColor=#D05C17;strokeColor=#ffffff;dashed=0;verticalLabelPosition=bottom;verticalAlign=top;align=center;html=1;fontSize=12;fontStyle=0;aspect=fixed;shape=mxgraph.aws4.resourceIcon;resIcon=mxgraph.aws4.ec2;" vertex="1" parent="xT3cx_YLARcE6HXCoQC6-131">
          <mxGeometry x="10" y="68" width="42" height="42" as="geometry" />
        </mxCell>
        <mxCell id="xT3cx_YLARcE6HXCoQC6-135" value="Testing Account" style="points=[[0,0],[0.25,0],[0.5,0],[0.75,0],[1,0],[1,0.25],[1,0.5],[1,0.75],[1,1],[0.75,1],[0.5,1],[0.25,1],[0,1],[0,0.75],[0,0.5],[0,0.25]];outlineConnect=0;gradientColor=none;html=1;whiteSpace=wrap;fontSize=12;fontStyle=0;container=1;pointerEvents=0;collapsible=0;recursiveResize=0;shape=mxgraph.aws4.group;grIcon=mxgraph.aws4.group_account;strokeColor=#CD2264;fillColor=none;verticalAlign=top;align=left;spacingLeft=30;fontColor=#CD2264;dashed=0;" vertex="1" parent="LGWR-m-QxM4RFgHYod-S-113">
          <mxGeometry x="263" y="454" width="195" height="190" as="geometry" />
        </mxCell>
        <mxCell id="xT3cx_YLARcE6HXCoQC6-136" value="&lt;font style=&quot;&quot; color=&quot;#006633&quot;&gt;TEST&lt;/font&gt;" style="points=[[0,0],[0.25,0],[0.5,0],[0.75,0],[1,0],[1,0.25],[1,0.5],[1,0.75],[1,1],[0.75,1],[0.5,1],[0.25,1],[0,1],[0,0.75],[0,0.5],[0,0.25]];outlineConnect=0;gradientColor=none;html=1;whiteSpace=wrap;fontSize=12;fontStyle=0;container=1;pointerEvents=0;collapsible=0;recursiveResize=0;shape=mxgraph.aws4.group;grIcon=mxgraph.aws4.group_vpc;strokeColor=#248814;fillColor=none;verticalAlign=top;align=left;spacingLeft=30;fontColor=#AAB7B8;dashed=0;" vertex="1" parent="xT3cx_YLARcE6HXCoQC6-135">
          <mxGeometry x="32.5" y="40" width="130" height="130" as="geometry" />
        </mxCell>
        <mxCell id="xT3cx_YLARcE6HXCoQC6-137" value="" style="sketch=0;points=[[0,0,0],[0.25,0,0],[0.5,0,0],[0.75,0,0],[1,0,0],[0,1,0],[0.25,1,0],[0.5,1,0],[0.75,1,0],[1,1,0],[0,0.25,0],[0,0.5,0],[0,0.75,0],[1,0.25,0],[1,0.5,0],[1,0.75,0]];outlineConnect=0;fontColor=#232F3E;gradientColor=#F78E04;gradientDirection=north;fillColor=#D05C17;strokeColor=#ffffff;dashed=0;verticalLabelPosition=bottom;verticalAlign=top;align=center;html=1;fontSize=12;fontStyle=0;aspect=fixed;shape=mxgraph.aws4.resourceIcon;resIcon=mxgraph.aws4.ec2;" vertex="1" parent="xT3cx_YLARcE6HXCoQC6-136">
          <mxGeometry x="44" y="40" width="42" height="42" as="geometry" />
        </mxCell>
        <mxCell id="xT3cx_YLARcE6HXCoQC6-138" value="" style="sketch=0;points=[[0,0,0],[0.25,0,0],[0.5,0,0],[0.75,0,0],[1,0,0],[0,1,0],[0.25,1,0],[0.5,1,0],[0.75,1,0],[1,1,0],[0,0.25,0],[0,0.5,0],[0,0.75,0],[1,0.25,0],[1,0.5,0],[1,0.75,0]];outlineConnect=0;fontColor=#232F3E;gradientColor=#F78E04;gradientDirection=north;fillColor=#D05C17;strokeColor=#ffffff;dashed=0;verticalLabelPosition=bottom;verticalAlign=top;align=center;html=1;fontSize=12;fontStyle=0;aspect=fixed;shape=mxgraph.aws4.resourceIcon;resIcon=mxgraph.aws4.ec2;" vertex="1" parent="xT3cx_YLARcE6HXCoQC6-136">
          <mxGeometry x="80" y="68" width="42" height="42" as="geometry" />
        </mxCell>
        <mxCell id="xT3cx_YLARcE6HXCoQC6-139" value="" style="sketch=0;points=[[0,0,0],[0.25,0,0],[0.5,0,0],[0.75,0,0],[1,0,0],[0,1,0],[0.25,1,0],[0.5,1,0],[0.75,1,0],[1,1,0],[0,0.25,0],[0,0.5,0],[0,0.75,0],[1,0.25,0],[1,0.5,0],[1,0.75,0]];outlineConnect=0;fontColor=#232F3E;gradientColor=#F78E04;gradientDirection=north;fillColor=#D05C17;strokeColor=#ffffff;dashed=0;verticalLabelPosition=bottom;verticalAlign=top;align=center;html=1;fontSize=12;fontStyle=0;aspect=fixed;shape=mxgraph.aws4.resourceIcon;resIcon=mxgraph.aws4.ec2;" vertex="1" parent="xT3cx_YLARcE6HXCoQC6-136">
          <mxGeometry x="10" y="68" width="42" height="42" as="geometry" />
        </mxCell>
        <mxCell id="xT3cx_YLARcE6HXCoQC6-140" value="" style="group" vertex="1" connectable="0" parent="LGWR-m-QxM4RFgHYod-S-113">
          <mxGeometry x="885" y="526" width="40" height="40" as="geometry" />
        </mxCell>
        <mxCell id="xT3cx_YLARcE6HXCoQC6-141" value="" style="ellipse;whiteSpace=wrap;html=1;aspect=fixed;strokeColor=none;" vertex="1" parent="xT3cx_YLARcE6HXCoQC6-140">
          <mxGeometry width="40" height="40" as="geometry" />
        </mxCell>
        <mxCell id="xT3cx_YLARcE6HXCoQC6-142" value="" style="sketch=0;outlineConnect=0;fontColor=#232F3E;gradientColor=none;fillColor=#BF0816;strokeColor=none;dashed=0;verticalLabelPosition=bottom;verticalAlign=top;align=center;html=1;fontSize=12;fontStyle=0;aspect=fixed;pointerEvents=1;shape=mxgraph.aws4.network_firewall_endpoints;" vertex="1" parent="xT3cx_YLARcE6HXCoQC6-140">
          <mxGeometry x="1" y="1" width="38" height="38" as="geometry" />
        </mxCell>
        <mxCell id="xT3cx_YLARcE6HXCoQC6-161" style="edgeStyle=orthogonalEdgeStyle;rounded=0;orthogonalLoop=1;jettySize=auto;html=1;strokeColor=#808080;" edge="1" parent="LGWR-m-QxM4RFgHYod-S-113" source="xT3cx_YLARcE6HXCoQC6-162" target="xT3cx_YLARcE6HXCoQC6-142">
          <mxGeometry relative="1" as="geometry" />
        </mxCell>
        <mxCell id="xT3cx_YLARcE6HXCoQC6-143" value="Development Account" style="points=[[0,0],[0.25,0],[0.5,0],[0.75,0],[1,0],[1,0.25],[1,0.5],[1,0.75],[1,1],[0.75,1],[0.5,1],[0.25,1],[0,1],[0,0.75],[0,0.5],[0,0.25]];outlineConnect=0;gradientColor=none;html=1;whiteSpace=wrap;fontSize=12;fontStyle=0;container=1;pointerEvents=0;collapsible=0;recursiveResize=0;shape=mxgraph.aws4.group;grIcon=mxgraph.aws4.group_account;strokeColor=#CD2264;fillColor=none;verticalAlign=top;align=left;spacingLeft=30;fontColor=#CD2264;dashed=0;" vertex="1" parent="LGWR-m-QxM4RFgHYod-S-113">
          <mxGeometry x="40" y="454" width="195" height="190" as="geometry" />
        </mxCell>
        <mxCell id="xT3cx_YLARcE6HXCoQC6-144" value="&lt;font style=&quot;&quot; color=&quot;#006633&quot;&gt;DEV&lt;/font&gt;" style="points=[[0,0],[0.25,0],[0.5,0],[0.75,0],[1,0],[1,0.25],[1,0.5],[1,0.75],[1,1],[0.75,1],[0.5,1],[0.25,1],[0,1],[0,0.75],[0,0.5],[0,0.25]];outlineConnect=0;gradientColor=none;html=1;whiteSpace=wrap;fontSize=12;fontStyle=0;container=1;pointerEvents=0;collapsible=0;recursiveResize=0;shape=mxgraph.aws4.group;grIcon=mxgraph.aws4.group_vpc;strokeColor=#248814;fillColor=none;verticalAlign=top;align=left;spacingLeft=30;fontColor=#AAB7B8;dashed=0;" vertex="1" parent="xT3cx_YLARcE6HXCoQC6-143">
          <mxGeometry x="32.5" y="40" width="130" height="130" as="geometry" />
        </mxCell>
        <mxCell id="xT3cx_YLARcE6HXCoQC6-145" value="" style="sketch=0;points=[[0,0,0],[0.25,0,0],[0.5,0,0],[0.75,0,0],[1,0,0],[0,1,0],[0.25,1,0],[0.5,1,0],[0.75,1,0],[1,1,0],[0,0.25,0],[0,0.5,0],[0,0.75,0],[1,0.25,0],[1,0.5,0],[1,0.75,0]];outlineConnect=0;fontColor=#232F3E;gradientColor=#F78E04;gradientDirection=north;fillColor=#D05C17;strokeColor=#ffffff;dashed=0;verticalLabelPosition=bottom;verticalAlign=top;align=center;html=1;fontSize=12;fontStyle=0;aspect=fixed;shape=mxgraph.aws4.resourceIcon;resIcon=mxgraph.aws4.ec2;" vertex="1" parent="xT3cx_YLARcE6HXCoQC6-144">
          <mxGeometry x="44" y="40" width="42" height="42" as="geometry" />
        </mxCell>
        <mxCell id="xT3cx_YLARcE6HXCoQC6-146" value="" style="sketch=0;points=[[0,0,0],[0.25,0,0],[0.5,0,0],[0.75,0,0],[1,0,0],[0,1,0],[0.25,1,0],[0.5,1,0],[0.75,1,0],[1,1,0],[0,0.25,0],[0,0.5,0],[0,0.75,0],[1,0.25,0],[1,0.5,0],[1,0.75,0]];outlineConnect=0;fontColor=#232F3E;gradientColor=#F78E04;gradientDirection=north;fillColor=#D05C17;strokeColor=#ffffff;dashed=0;verticalLabelPosition=bottom;verticalAlign=top;align=center;html=1;fontSize=12;fontStyle=0;aspect=fixed;shape=mxgraph.aws4.resourceIcon;resIcon=mxgraph.aws4.ec2;" vertex="1" parent="xT3cx_YLARcE6HXCoQC6-144">
          <mxGeometry x="80" y="68" width="42" height="42" as="geometry" />
        </mxCell>
        <mxCell id="xT3cx_YLARcE6HXCoQC6-147" value="" style="sketch=0;points=[[0,0,0],[0.25,0,0],[0.5,0,0],[0.75,0,0],[1,0,0],[0,1,0],[0.25,1,0],[0.5,1,0],[0.75,1,0],[1,1,0],[0,0.25,0],[0,0.5,0],[0,0.75,0],[1,0.25,0],[1,0.5,0],[1,0.75,0]];outlineConnect=0;fontColor=#232F3E;gradientColor=#F78E04;gradientDirection=north;fillColor=#D05C17;strokeColor=#ffffff;dashed=0;verticalLabelPosition=bottom;verticalAlign=top;align=center;html=1;fontSize=12;fontStyle=0;aspect=fixed;shape=mxgraph.aws4.resourceIcon;resIcon=mxgraph.aws4.ec2;" vertex="1" parent="xT3cx_YLARcE6HXCoQC6-144">
          <mxGeometry x="10" y="68" width="42" height="42" as="geometry" />
        </mxCell>
        <mxCell id="xT3cx_YLARcE6HXCoQC6-148" value="" style="group" vertex="1" connectable="0" parent="LGWR-m-QxM4RFgHYod-S-113">
          <mxGeometry x="569" y="621" width="40" height="40" as="geometry" />
        </mxCell>
        <mxCell id="xT3cx_YLARcE6HXCoQC6-149" value="" style="ellipse;whiteSpace=wrap;html=1;aspect=fixed;strokeColor=none;" vertex="1" parent="xT3cx_YLARcE6HXCoQC6-148">
          <mxGeometry width="40" height="40" as="geometry" />
        </mxCell>
        <mxCell id="xT3cx_YLARcE6HXCoQC6-150" value="" style="sketch=0;outlineConnect=0;fontColor=#232F3E;gradientColor=none;fillColor=#BF0816;strokeColor=none;dashed=0;verticalLabelPosition=bottom;verticalAlign=top;align=center;html=1;fontSize=12;fontStyle=0;aspect=fixed;pointerEvents=1;shape=mxgraph.aws4.addon;" vertex="1" parent="xT3cx_YLARcE6HXCoQC6-148">
          <mxGeometry x="0.5" y="10" width="39" height="20" as="geometry" />
        </mxCell>
        <mxCell id="xT3cx_YLARcE6HXCoQC6-163" style="edgeStyle=orthogonalEdgeStyle;rounded=0;orthogonalLoop=1;jettySize=auto;html=1;strokeColor=#808080;endArrow=classic;endFill=1;" edge="1" parent="LGWR-m-QxM4RFgHYod-S-113" source="xT3cx_YLARcE6HXCoQC6-164" target="xT3cx_YLARcE6HXCoQC6-150">
          <mxGeometry relative="1" as="geometry" />
        </mxCell>
        <mxCell id="xT3cx_YLARcE6HXCoQC6-151" value="" style="group" vertex="1" connectable="0" parent="LGWR-m-QxM4RFgHYod-S-113">
          <mxGeometry x="119" y="621" width="40" height="40" as="geometry" />
        </mxCell>
        <mxCell id="xT3cx_YLARcE6HXCoQC6-152" value="" style="ellipse;whiteSpace=wrap;html=1;aspect=fixed;strokeColor=none;" vertex="1" parent="xT3cx_YLARcE6HXCoQC6-151">
          <mxGeometry width="40" height="40" as="geometry" />
        </mxCell>
        <mxCell id="xT3cx_YLARcE6HXCoQC6-153" value="" style="sketch=0;outlineConnect=0;fontColor=#232F3E;gradientColor=none;fillColor=#BF0816;strokeColor=none;dashed=0;verticalLabelPosition=bottom;verticalAlign=top;align=center;html=1;fontSize=12;fontStyle=0;aspect=fixed;pointerEvents=1;shape=mxgraph.aws4.addon;" vertex="1" parent="xT3cx_YLARcE6HXCoQC6-151">
          <mxGeometry x="0.5" y="10" width="39" height="20" as="geometry" />
        </mxCell>
        <mxCell id="xT3cx_YLARcE6HXCoQC6-165" style="edgeStyle=orthogonalEdgeStyle;rounded=0;orthogonalLoop=1;jettySize=auto;html=1;strokeColor=#808080;endArrow=classic;endFill=1;" edge="1" parent="LGWR-m-QxM4RFgHYod-S-113" source="xT3cx_YLARcE6HXCoQC6-166" target="xT3cx_YLARcE6HXCoQC6-153">
          <mxGeometry relative="1" as="geometry" />
        </mxCell>
        <mxCell id="xT3cx_YLARcE6HXCoQC6-154" value="" style="ellipse;whiteSpace=wrap;html=1;aspect=fixed;strokeColor=none;" vertex="1" parent="LGWR-m-QxM4RFgHYod-S-113">
          <mxGeometry x="796" y="621" width="40" height="40" as="geometry" />
        </mxCell>
        <mxCell id="xT3cx_YLARcE6HXCoQC6-155" value="" style="sketch=0;outlineConnect=0;fontColor=#232F3E;gradientColor=none;fillColor=#BF0816;strokeColor=none;dashed=0;verticalLabelPosition=bottom;verticalAlign=top;align=center;html=1;fontSize=12;fontStyle=0;aspect=fixed;pointerEvents=1;shape=mxgraph.aws4.temporary_security_credential;" vertex="1" parent="LGWR-m-QxM4RFgHYod-S-113">
          <mxGeometry x="796.5" y="631" width="39" height="20" as="geometry" />
        </mxCell>
        <mxCell id="xT3cx_YLARcE6HXCoQC6-167" style="edgeStyle=orthogonalEdgeStyle;rounded=0;orthogonalLoop=1;jettySize=auto;html=1;strokeColor=#808080;endArrow=classic;endFill=1;" edge="1" parent="LGWR-m-QxM4RFgHYod-S-113" source="xT3cx_YLARcE6HXCoQC6-168" target="xT3cx_YLARcE6HXCoQC6-155">
          <mxGeometry relative="1" as="geometry" />
        </mxCell>
        <mxCell id="xT3cx_YLARcE6HXCoQC6-156" value="" style="group" vertex="1" connectable="0" parent="LGWR-m-QxM4RFgHYod-S-113">
          <mxGeometry x="344" y="621" width="40" height="40" as="geometry" />
        </mxCell>
        <mxCell id="xT3cx_YLARcE6HXCoQC6-157" value="" style="ellipse;whiteSpace=wrap;html=1;aspect=fixed;strokeColor=none;" vertex="1" parent="xT3cx_YLARcE6HXCoQC6-156">
          <mxGeometry width="40" height="40" as="geometry" />
        </mxCell>
        <mxCell id="xT3cx_YLARcE6HXCoQC6-158" value="" style="sketch=0;outlineConnect=0;fontColor=#232F3E;gradientColor=none;fillColor=#BF0816;strokeColor=none;dashed=0;verticalLabelPosition=bottom;verticalAlign=top;align=center;html=1;fontSize=12;fontStyle=0;aspect=fixed;pointerEvents=1;shape=mxgraph.aws4.addon;" vertex="1" parent="xT3cx_YLARcE6HXCoQC6-156">
          <mxGeometry x="0.5" y="10" width="39" height="20" as="geometry" />
        </mxCell>
        <mxCell id="xT3cx_YLARcE6HXCoQC6-159" style="edgeStyle=orthogonalEdgeStyle;rounded=0;orthogonalLoop=1;jettySize=auto;html=1;strokeColor=#808080;endArrow=classic;endFill=1;" edge="1" parent="LGWR-m-QxM4RFgHYod-S-113" source="xT3cx_YLARcE6HXCoQC6-160" target="xT3cx_YLARcE6HXCoQC6-158">
          <mxGeometry relative="1" as="geometry" />
        </mxCell>
        <mxCell id="LGWR-m-QxM4RFgHYod-S-1" value="" style="line;strokeWidth=1;html=1;dashed=1;strokeColor=#808080;" vertex="1" parent="LGWR-m-QxM4RFgHYod-S-113">
          <mxGeometry x="10" y="413" width="930" height="10" as="geometry" />
        </mxCell>
        <mxCell id="LGWR-m-QxM4RFgHYod-S-2" value="Contas de gerenciamento" style="text;html=1;strokeColor=none;fillColor=none;align=center;verticalAlign=middle;whiteSpace=wrap;rounded=0;" vertex="1" parent="LGWR-m-QxM4RFgHYod-S-113">
          <mxGeometry x="10" y="383" width="140" height="30" as="geometry" />
        </mxCell>
        <mxCell id="LGWR-m-QxM4RFgHYod-S-14" value="Management Account" style="points=[[0,0],[0.25,0],[0.5,0],[0.75,0],[1,0],[1,0.25],[1,0.5],[1,0.75],[1,1],[0.75,1],[0.5,1],[0.25,1],[0,1],[0,0.75],[0,0.5],[0,0.25]];outlineConnect=0;gradientColor=none;html=1;whiteSpace=wrap;fontSize=12;fontStyle=0;container=1;pointerEvents=0;collapsible=0;recursiveResize=0;shape=mxgraph.aws4.group;grIcon=mxgraph.aws4.group_account;strokeColor=#CD2264;fillColor=none;verticalAlign=top;align=left;spacingLeft=30;fontColor=#CD2264;dashed=0;" vertex="1" parent="LGWR-m-QxM4RFgHYod-S-113">
          <mxGeometry x="109" y="173" width="195" height="190" as="geometry" />
        </mxCell>
        <mxCell id="LGWR-m-QxM4RFgHYod-S-15" value="&lt;font style=&quot;font-size: 11px;&quot; color=&quot;#006633&quot;&gt;Management&lt;/font&gt;" style="points=[[0,0],[0.25,0],[0.5,0],[0.75,0],[1,0],[1,0.25],[1,0.5],[1,0.75],[1,1],[0.75,1],[0.5,1],[0.25,1],[0,1],[0,0.75],[0,0.5],[0,0.25]];outlineConnect=0;gradientColor=none;html=1;whiteSpace=wrap;fontSize=12;fontStyle=0;container=1;pointerEvents=0;collapsible=0;recursiveResize=0;shape=mxgraph.aws4.group;grIcon=mxgraph.aws4.group_vpc;strokeColor=#248814;fillColor=none;verticalAlign=top;align=left;spacingLeft=30;fontColor=#AAB7B8;dashed=0;" vertex="1" parent="LGWR-m-QxM4RFgHYod-S-14">
          <mxGeometry x="32.5" y="40" width="130" height="130" as="geometry" />
        </mxCell>
        <mxCell id="LGWR-m-QxM4RFgHYod-S-16" value="Management Activities" style="sketch=0;points=[[0,0,0],[0.25,0,0],[0.5,0,0],[0.75,0,0],[1,0,0],[0,1,0],[0.25,1,0],[0.5,1,0],[0.75,1,0],[1,1,0],[0,0.25,0],[0,0.5,0],[0,0.75,0],[1,0.25,0],[1,0.5,0],[1,0.75,0]];outlineConnect=0;fontColor=#232F3E;gradientColor=#60A337;gradientDirection=north;fillColor=#277116;strokeColor=#ffffff;dashed=0;verticalLabelPosition=bottom;verticalAlign=top;align=center;html=1;fontSize=12;fontStyle=0;aspect=fixed;shape=mxgraph.aws4.resourceIcon;resIcon=mxgraph.aws4.cost_explorer;" vertex="1" parent="LGWR-m-QxM4RFgHYod-S-15">
          <mxGeometry x="36" y="42" width="58" height="58" as="geometry" />
        </mxCell>
        <mxCell id="LGWR-m-QxM4RFgHYod-S-7" value="Centralized Logging Account" style="points=[[0,0],[0.25,0],[0.5,0],[0.75,0],[1,0],[1,0.25],[1,0.5],[1,0.75],[1,1],[0.75,1],[0.5,1],[0.25,1],[0,1],[0,0.75],[0,0.5],[0,0.25]];outlineConnect=0;gradientColor=none;html=1;whiteSpace=wrap;fontSize=12;fontStyle=0;container=1;pointerEvents=0;collapsible=0;recursiveResize=0;shape=mxgraph.aws4.group;grIcon=mxgraph.aws4.group_account;strokeColor=#CD2264;fillColor=none;verticalAlign=top;align=left;spacingLeft=30;fontColor=#CD2264;dashed=0;" vertex="1" parent="LGWR-m-QxM4RFgHYod-S-113">
          <mxGeometry x="654" y="173" width="195" height="190" as="geometry" />
        </mxCell>
        <mxCell id="LGWR-m-QxM4RFgHYod-S-8" value="&lt;font style=&quot;font-size: 11px;&quot; color=&quot;#006633&quot;&gt;Centralized Logs&lt;/font&gt;" style="points=[[0,0],[0.25,0],[0.5,0],[0.75,0],[1,0],[1,0.25],[1,0.5],[1,0.75],[1,1],[0.75,1],[0.5,1],[0.25,1],[0,1],[0,0.75],[0,0.5],[0,0.25]];outlineConnect=0;gradientColor=none;html=1;whiteSpace=wrap;fontSize=12;fontStyle=0;container=1;pointerEvents=0;collapsible=0;recursiveResize=0;shape=mxgraph.aws4.group;grIcon=mxgraph.aws4.group_vpc;strokeColor=#248814;fillColor=none;verticalAlign=top;align=left;spacingLeft=30;fontColor=#AAB7B8;dashed=0;" vertex="1" parent="LGWR-m-QxM4RFgHYod-S-7">
          <mxGeometry x="32.5" y="40" width="130" height="130" as="geometry" />
        </mxCell>
        <mxCell id="LGWR-m-QxM4RFgHYod-S-13" value="Centralized Logs" style="sketch=0;points=[[0,0,0],[0.25,0,0],[0.5,0,0],[0.75,0,0],[1,0,0],[0,1,0],[0.25,1,0],[0.5,1,0],[0.75,1,0],[1,1,0],[0,0.25,0],[0,0.5,0],[0,0.75,0],[1,0.25,0],[1,0.5,0],[1,0.75,0]];outlineConnect=0;fontColor=#232F3E;gradientColor=#F34482;gradientDirection=north;fillColor=#BC1356;strokeColor=#ffffff;dashed=0;verticalLabelPosition=bottom;verticalAlign=top;align=center;html=1;fontSize=12;fontStyle=0;aspect=fixed;shape=mxgraph.aws4.resourceIcon;resIcon=mxgraph.aws4.cloudwatch_2;" vertex="1" parent="LGWR-m-QxM4RFgHYod-S-8">
          <mxGeometry x="36" y="42" width="58" height="58" as="geometry" />
        </mxCell>
        <mxCell id="LGWR-m-QxM4RFgHYod-S-17" style="edgeStyle=orthogonalEdgeStyle;rounded=0;orthogonalLoop=1;jettySize=auto;html=1;entryX=1;entryY=0.5;entryDx=0;entryDy=0;strokeColor=#808080;entryPerimeter=0;exitX=0.5;exitY=0;exitDx=0;exitDy=0;" edge="1" parent="LGWR-m-QxM4RFgHYod-S-113" source="xT3cx_YLARcE6HXCoQC6-125" target="LGWR-m-QxM4RFgHYod-S-13">
          <mxGeometry relative="1" as="geometry">
            <Array as="points">
              <mxPoint x="870" y="451" />
              <mxPoint x="870" y="284" />
            </Array>
          </mxGeometry>
        </mxCell>
        <mxCell id="LGWR-m-QxM4RFgHYod-S-20" style="edgeStyle=orthogonalEdgeStyle;rounded=0;orthogonalLoop=1;jettySize=auto;html=1;entryX=0;entryY=0.5;entryDx=0;entryDy=0;strokeColor=#808080;entryPerimeter=0;" edge="1" parent="LGWR-m-QxM4RFgHYod-S-113" source="xT3cx_YLARcE6HXCoQC6-130" target="LGWR-m-QxM4RFgHYod-S-13">
          <mxGeometry relative="1" as="geometry">
            <Array as="points">
              <mxPoint x="630" y="284" />
            </Array>
          </mxGeometry>
        </mxCell>
        <mxCell id="LGWR-m-QxM4RFgHYod-S-21" value="" style="group" vertex="1" connectable="0" parent="LGWR-m-QxM4RFgHYod-S-113">
          <mxGeometry x="180" y="140" width="40" height="40" as="geometry" />
        </mxCell>
        <mxCell id="LGWR-m-QxM4RFgHYod-S-22" value="" style="ellipse;whiteSpace=wrap;html=1;aspect=fixed;strokeColor=none;" vertex="1" parent="LGWR-m-QxM4RFgHYod-S-21">
          <mxGeometry width="40" height="40" as="geometry" />
        </mxCell>
        <mxCell id="LGWR-m-QxM4RFgHYod-S-23" value="" style="sketch=0;outlineConnect=0;fontColor=#232F3E;gradientColor=none;fillColor=#BF0816;strokeColor=none;dashed=0;verticalLabelPosition=bottom;verticalAlign=top;align=center;html=1;fontSize=12;fontStyle=0;aspect=fixed;pointerEvents=1;shape=mxgraph.aws4.addon;" vertex="1" parent="LGWR-m-QxM4RFgHYod-S-21">
          <mxGeometry x="0.5" y="10" width="39" height="20" as="geometry" />
        </mxCell>
        <mxCell id="LGWR-m-QxM4RFgHYod-S-29" style="edgeStyle=orthogonalEdgeStyle;rounded=0;orthogonalLoop=1;jettySize=auto;html=1;strokeColor=#808080;entryX=0.5;entryY=0;entryDx=0;entryDy=0;" edge="1" parent="LGWR-m-QxM4RFgHYod-S-113" source="LGWR-m-QxM4RFgHYod-S-6" target="LGWR-m-QxM4RFgHYod-S-22">
          <mxGeometry relative="1" as="geometry">
            <mxPoint x="200" y="147" as="targetPoint" />
          </mxGeometry>
        </mxCell>
        <mxCell id="LGWR-m-QxM4RFgHYod-S-24" value="" style="group" vertex="1" connectable="0" parent="LGWR-m-QxM4RFgHYod-S-113">
          <mxGeometry x="731.5" y="140" width="40" height="40" as="geometry" />
        </mxCell>
        <mxCell id="LGWR-m-QxM4RFgHYod-S-25" value="" style="ellipse;whiteSpace=wrap;html=1;aspect=fixed;strokeColor=none;" vertex="1" parent="LGWR-m-QxM4RFgHYod-S-24">
          <mxGeometry width="40" height="40" as="geometry" />
        </mxCell>
        <mxCell id="LGWR-m-QxM4RFgHYod-S-26" value="" style="sketch=0;outlineConnect=0;fontColor=#232F3E;gradientColor=none;fillColor=#BF0816;strokeColor=none;dashed=0;verticalLabelPosition=bottom;verticalAlign=top;align=center;html=1;fontSize=12;fontStyle=0;aspect=fixed;pointerEvents=1;shape=mxgraph.aws4.addon;" vertex="1" parent="LGWR-m-QxM4RFgHYod-S-24">
          <mxGeometry x="0.5" y="10" width="39" height="20" as="geometry" />
        </mxCell>
        <mxCell id="LGWR-m-QxM4RFgHYod-S-28" style="edgeStyle=orthogonalEdgeStyle;rounded=0;orthogonalLoop=1;jettySize=auto;html=1;strokeColor=#808080;entryX=0.5;entryY=0;entryDx=0;entryDy=0;" edge="1" parent="LGWR-m-QxM4RFgHYod-S-113" source="LGWR-m-QxM4RFgHYod-S-27" target="LGWR-m-QxM4RFgHYod-S-25">
          <mxGeometry relative="1" as="geometry" />
        </mxCell>
        <mxCell id="LGWR-m-QxM4RFgHYod-S-101" value="DevOps/SREs" style="outlineConnect=0;fontColor=#232F3E;gradientColor=none;fillColor=#232F3D;strokeColor=none;dashed=0;verticalLabelPosition=bottom;verticalAlign=top;align=center;html=1;fontSize=12;fontStyle=0;aspect=fixed;pointerEvents=1;shape=mxgraph.aws4.users;strokeWidth=1;shadow=0;" vertex="1" parent="LGWR-m-QxM4RFgHYod-S-113">
          <mxGeometry x="426" width="78" height="78" as="geometry" />
        </mxCell>
        <mxCell id="LGWR-m-QxM4RFgHYod-S-102" value="Centralized Tooling Account" style="points=[[0,0],[0.25,0],[0.5,0],[0.75,0],[1,0],[1,0.25],[1,0.5],[1,0.75],[1,1],[0.75,1],[0.5,1],[0.25,1],[0,1],[0,0.75],[0,0.5],[0,0.25]];outlineConnect=0;gradientColor=none;html=1;whiteSpace=wrap;fontSize=12;fontStyle=0;container=1;pointerEvents=0;collapsible=0;recursiveResize=0;shape=mxgraph.aws4.group;grIcon=mxgraph.aws4.group_account;strokeColor=#CD2264;fillColor=none;verticalAlign=top;align=left;spacingLeft=30;fontColor=#CD2264;dashed=0;" vertex="1" parent="LGWR-m-QxM4RFgHYod-S-113">
          <mxGeometry x="374" y="173" width="195" height="190" as="geometry" />
        </mxCell>
        <mxCell id="LGWR-m-QxM4RFgHYod-S-103" value="&lt;font style=&quot;font-size: 11px;&quot; color=&quot;#006633&quot;&gt;Centralized Tooling&lt;/font&gt;" style="points=[[0,0],[0.25,0],[0.5,0],[0.75,0],[1,0],[1,0.25],[1,0.5],[1,0.75],[1,1],[0.75,1],[0.5,1],[0.25,1],[0,1],[0,0.75],[0,0.5],[0,0.25]];outlineConnect=0;gradientColor=none;html=1;whiteSpace=wrap;fontSize=12;fontStyle=0;container=1;pointerEvents=0;collapsible=0;recursiveResize=0;shape=mxgraph.aws4.group;grIcon=mxgraph.aws4.group_vpc;strokeColor=#248814;fillColor=none;verticalAlign=top;align=left;spacingLeft=30;fontColor=#AAB7B8;dashed=0;" vertex="1" parent="LGWR-m-QxM4RFgHYod-S-102">
          <mxGeometry x="32.5" y="40" width="130" height="130" as="geometry" />
        </mxCell>
        <mxCell id="LGWR-m-QxM4RFgHYod-S-104" value="Centralized Tooling" style="sketch=0;points=[[0,0,0],[0.25,0,0],[0.5,0,0],[0.75,0,0],[1,0,0],[0,1,0],[0.25,1,0],[0.5,1,0],[0.75,1,0],[1,1,0],[0,0.25,0],[0,0.5,0],[0,0.75,0],[1,0.25,0],[1,0.5,0],[1,0.75,0]];outlineConnect=0;fontColor=#232F3E;gradientColor=#4D72F3;gradientDirection=north;fillColor=#3334B9;strokeColor=#ffffff;dashed=0;verticalLabelPosition=bottom;verticalAlign=top;align=center;html=1;fontSize=12;fontStyle=0;aspect=fixed;shape=mxgraph.aws4.resourceIcon;resIcon=mxgraph.aws4.codebuild;" vertex="1" parent="LGWR-m-QxM4RFgHYod-S-103">
          <mxGeometry x="36" y="42" width="58" height="58" as="geometry" />
        </mxCell>
        <mxCell id="LGWR-m-QxM4RFgHYod-S-105" value="" style="group" vertex="1" connectable="0" parent="LGWR-m-QxM4RFgHYod-S-113">
          <mxGeometry x="445" y="140" width="40" height="40" as="geometry" />
        </mxCell>
        <mxCell id="LGWR-m-QxM4RFgHYod-S-106" value="" style="ellipse;whiteSpace=wrap;html=1;aspect=fixed;strokeColor=none;" vertex="1" parent="LGWR-m-QxM4RFgHYod-S-105">
          <mxGeometry width="40" height="40" as="geometry" />
        </mxCell>
        <mxCell id="LGWR-m-QxM4RFgHYod-S-107" value="" style="sketch=0;outlineConnect=0;fontColor=#232F3E;gradientColor=none;fillColor=#BF0816;strokeColor=none;dashed=0;verticalLabelPosition=bottom;verticalAlign=top;align=center;html=1;fontSize=12;fontStyle=0;aspect=fixed;pointerEvents=1;shape=mxgraph.aws4.addon;" vertex="1" parent="LGWR-m-QxM4RFgHYod-S-105">
          <mxGeometry x="0.5" y="10" width="39" height="20" as="geometry" />
        </mxCell>
        <mxCell id="LGWR-m-QxM4RFgHYod-S-110" style="edgeStyle=orthogonalEdgeStyle;rounded=0;orthogonalLoop=1;jettySize=auto;html=1;exitX=0;exitY=0.5;exitDx=0;exitDy=0;exitPerimeter=0;entryX=0.5;entryY=0;entryDx=0;entryDy=0;strokeColor=#808080;" edge="1" parent="LGWR-m-QxM4RFgHYod-S-113" source="LGWR-m-QxM4RFgHYod-S-104" target="xT3cx_YLARcE6HXCoQC6-135">
          <mxGeometry relative="1" as="geometry" />
        </mxCell>
        <mxCell id="LGWR-m-QxM4RFgHYod-S-100" style="edgeStyle=orthogonalEdgeStyle;rounded=0;orthogonalLoop=1;jettySize=auto;html=1;strokeColor=#808080;entryX=0.5;entryY=0;entryDx=0;entryDy=0;" edge="1" source="LGWR-m-QxM4RFgHYod-S-101" target="LGWR-m-QxM4RFgHYod-S-106" parent="LGWR-m-QxM4RFgHYod-S-113">
          <mxGeometry relative="1" as="geometry">
            <mxPoint x="465" y="147" as="targetPoint" />
          </mxGeometry>
        </mxCell>
        <mxCell id="LGWR-m-QxM4RFgHYod-S-111" style="edgeStyle=orthogonalEdgeStyle;rounded=0;orthogonalLoop=1;jettySize=auto;html=1;exitX=1;exitY=0.5;exitDx=0;exitDy=0;exitPerimeter=0;entryX=0.5;entryY=0;entryDx=0;entryDy=0;strokeColor=#808080;" edge="1" parent="LGWR-m-QxM4RFgHYod-S-113" source="LGWR-m-QxM4RFgHYod-S-104" target="xT3cx_YLARcE6HXCoQC6-130">
          <mxGeometry relative="1" as="geometry" />
        </mxCell>
        <mxCell id="LGWR-m-QxM4RFgHYod-S-114" value="&lt;b style=&quot;font-weight:normal;&quot; id=&quot;docs-internal-guid-85e9b71b-7fff-35d7-92ab-936a21c47192&quot;&gt;&lt;p dir=&quot;ltr&quot; style=&quot;line-height:1.2;margin-top:0pt;margin-bottom:0pt;&quot;&gt;&lt;span style=&quot;font-size: 18pt; font-family: Nunito, sans-serif; color: rgb(23, 57, 83); background-color: transparent; font-weight: 900; font-style: normal; font-variant: normal; text-decoration: none; vertical-align: baseline;&quot;&gt;Ambientes SDLC (Software Development Life Cycle)&lt;/span&gt;&lt;/p&gt;&lt;/b&gt;&lt;br class=&quot;Apple-interchange-newline&quot;&gt;" style="text;whiteSpace=wrap;html=1;" vertex="1" parent="1">
          <mxGeometry x="40" y="40" width="610" height="50" as="geometry" />
        </mxCell>
        <mxCell id="LGWR-m-QxM4RFgHYod-S-115" value="&lt;b style=&quot;font-weight:normal;&quot; id=&quot;docs-internal-guid-18908d48-7fff-ac0d-10c3-49030d8cc8e0&quot;&gt;&lt;p dir=&quot;ltr&quot; style=&quot;line-height:1.2;margin-top:0pt;margin-bottom:0pt;&quot;&gt;&lt;span style=&quot;font-size: 18pt; font-family: Nunito, sans-serif; color: rgb(23, 57, 83); background-color: transparent; font-weight: 900; font-style: normal; font-variant: normal; text-decoration: none; vertical-align: baseline;&quot;&gt;Ambientes de backup&lt;/span&gt;&lt;/p&gt;&lt;/b&gt;&lt;br class=&quot;Apple-interchange-newline&quot;&gt;" style="text;whiteSpace=wrap;html=1;" vertex="1" parent="1">
          <mxGeometry x="40" y="640" width="280" height="40" as="geometry" />
        </mxCell>
        <mxCell id="LGWR-m-QxM4RFgHYod-S-116" value="&lt;b style=&quot;font-weight:normal;&quot; id=&quot;docs-internal-guid-ee47c32d-7fff-3b02-9285-0a3521859588&quot;&gt;&lt;p dir=&quot;ltr&quot; style=&quot;line-height:1.2;margin-top:0pt;margin-bottom:0pt;&quot;&gt;&lt;span style=&quot;font-size: 18pt; font-family: Nunito, sans-serif; color: rgb(23, 57, 83); background-color: transparent; font-weight: 900; font-style: normal; font-variant: normal; text-decoration: none; vertical-align: baseline;&quot;&gt;Ambientes com gestão centralizada e governança&lt;/span&gt;&lt;/p&gt;&lt;/b&gt;&lt;br class=&quot;Apple-interchange-newline&quot;&gt;" style="text;whiteSpace=wrap;html=1;" vertex="1" parent="1">
          <mxGeometry x="40" y="1600" width="600" height="40" as="geometry" />
        </mxCell>
      </root>
    </mxGraphModel>
  </diagram>
</mxfile>
